<svg width="156" height="61" viewBox="0 0 156 61" fill="none" xmlns="http://www.w3.org/2000/svg">
<path d="M2.76 56.184C2.36533 56.184 1.98667 56.12 1.624 55.992C1.272 55.864 0.968 55.672 0.712 55.416L1.24 54.568C1.45333 54.7707 1.68267 54.9253 1.928 55.032C2.184 55.1493 2.46667 55.208 2.776 55.208C3.14933 55.208 3.46933 55.1013 3.736 54.888C4.01333 54.6853 4.27467 54.3227 4.52 53.8L5.064 52.568L5.192 52.392L8.648 44.6H9.768L5.56 54.008C5.32533 54.552 5.064 54.984 4.776 55.304C4.49867 55.624 4.19467 55.848 3.864 55.976C3.53333 56.1147 3.16533 56.184 2.76 56.184ZM5 53.24L1.128 44.6H2.312L5.736 52.312L5 53.24ZM9.62688 52.984L9.70688 52.008C9.78154 52.0187 9.85088 52.0347 9.91488 52.056C9.98954 52.0667 10.0535 52.072 10.1069 52.072C10.4482 52.072 10.7202 51.944 10.9229 51.688C11.1362 51.432 11.2962 51.0907 11.4029 50.664C11.5095 50.2373 11.5842 49.7573 11.6269 49.224C11.6695 48.68 11.7069 48.136 11.7389 47.592L11.8829 44.6H18.0429V53H16.9069V45.256L17.1949 45.592H12.6189L12.8909 45.24L12.7629 47.672C12.7309 48.3973 12.6722 49.0907 12.5869 49.752C12.5122 50.4133 12.3895 50.9947 12.2189 51.496C12.0589 51.9973 11.8349 52.392 11.5469 52.68C11.2589 52.9573 10.8909 53.096 10.4429 53.096C10.3149 53.096 10.1815 53.0853 10.0429 53.064C9.91488 53.0427 9.77621 53.016 9.62688 52.984ZM21.3523 53.08C21.1176 53.08 20.9149 52.9947 20.7443 52.824C20.5843 52.6533 20.5043 52.4453 20.5043 52.2C20.5043 51.944 20.5843 51.736 20.7443 51.576C20.9149 51.416 21.1176 51.336 21.3523 51.336C21.5869 51.336 21.7843 51.416 21.9443 51.576C22.1149 51.736 22.2003 51.944 22.2003 52.2C22.2003 52.4453 22.1149 52.6533 21.9443 52.824C21.7843 52.9947 21.5869 53.08 21.3523 53.08ZM36.5624 52.44V42.824H31.2024L31.1064 45.544C31.0744 46.3867 31.021 47.1973 30.9464 47.976C30.8824 48.744 30.7757 49.4373 30.6264 50.056C30.4877 50.664 30.2957 51.16 30.0504 51.544C29.8157 51.928 29.5064 52.152 29.1224 52.216L27.8264 51.976C28.253 51.9973 28.605 51.8427 28.8824 51.512C29.1704 51.1813 29.389 50.7173 29.5384 50.12C29.6984 49.5227 29.8157 48.824 29.8904 48.024C29.965 47.224 30.0184 46.36 30.0504 45.432L30.1784 41.8H37.7304V52.44H36.5624ZM27.4104 55.512L27.4264 51.976H39.4104V55.512H38.3064V53H28.5304L28.5144 55.512H27.4104ZM44.9191 53.08C44.0445 53.08 43.2765 52.8987 42.6151 52.536C41.9538 52.1627 41.4365 51.656 41.0631 51.016C40.6898 50.3653 40.5031 49.624 40.5031 48.792C40.5031 47.96 40.6791 47.224 41.0311 46.584C41.3938 45.944 41.8845 45.4427 42.5031 45.08C43.1325 44.7067 43.8365 44.52 44.6151 44.52C45.4045 44.52 46.1031 44.7013 46.7111 45.064C47.3298 45.416 47.8151 45.9173 48.1671 46.568C48.5191 47.208 48.6951 47.9493 48.6951 48.792C48.6951 48.8453 48.6898 48.904 48.6791 48.968C48.6791 49.0213 48.6791 49.08 48.6791 49.144H41.3671V48.296H48.0711L47.6231 48.632C47.6231 48.024 47.4898 47.4853 47.2231 47.016C46.9671 46.536 46.6151 46.1627 46.1671 45.896C45.7191 45.6293 45.2018 45.496 44.6151 45.496C44.0391 45.496 43.5218 45.6293 43.0631 45.896C42.6045 46.1627 42.2471 46.536 41.9911 47.016C41.7351 47.496 41.6071 48.0453 41.6071 48.664V48.84C41.6071 49.48 41.7458 50.0453 42.0231 50.536C42.3111 51.016 42.7058 51.3947 43.2071 51.672C43.7191 51.9387 44.3005 52.072 44.9511 52.072C45.4631 52.072 45.9378 51.9813 46.3751 51.8C46.8231 51.6187 47.2071 51.3413 47.5271 50.968L48.1671 51.704C47.7938 52.152 47.3245 52.4933 46.7591 52.728C46.2045 52.9627 45.5911 53.08 44.9191 53.08ZM51.2098 53V44.6H52.3458V48.312H57.6418V44.6H58.7778V53H57.6418V49.288H52.3458V53H51.2098ZM62.0066 53V44.6H63.1426V51.272L68.7586 44.6H69.7666V53H68.6306V46.312L63.0306 53H62.0066ZM76.5423 53.08C75.7103 53.08 74.9636 52.8987 74.3023 52.536C73.6516 52.1627 73.1396 51.656 72.7663 51.016C72.3929 50.3653 72.2063 49.624 72.2063 48.792C72.2063 47.9493 72.3929 47.208 72.7663 46.568C73.1396 45.928 73.6516 45.4267 74.3023 45.064C74.9636 44.7013 75.7103 44.52 76.5423 44.52C77.2569 44.52 77.9023 44.6587 78.4783 44.936C79.0543 45.2133 79.5076 45.6293 79.8383 46.184L78.9903 46.76C78.7023 46.3333 78.3449 46.0187 77.9183 45.816C77.4916 45.6133 77.0276 45.512 76.5263 45.512C75.9289 45.512 75.3903 45.6507 74.9103 45.928C74.4303 46.1947 74.0516 46.5733 73.7743 47.064C73.4969 47.5547 73.3583 48.1307 73.3583 48.792C73.3583 49.4533 73.4969 50.0293 73.7743 50.52C74.0516 51.0107 74.4303 51.3947 74.9103 51.672C75.3903 51.9387 75.9289 52.072 76.5263 52.072C77.0276 52.072 77.4916 51.9707 77.9183 51.768C78.3449 51.5653 78.7023 51.256 78.9903 50.84L79.8383 51.416C79.5076 51.96 79.0543 52.376 78.4783 52.664C77.9023 52.9413 77.2569 53.08 76.5423 53.08ZM85.3533 53.08C84.5426 53.08 83.8119 52.8987 83.1613 52.536C82.5213 52.1627 82.0146 51.656 81.6413 51.016C81.2679 50.3653 81.0813 49.624 81.0813 48.792C81.0813 47.9493 81.2679 47.208 81.6413 46.568C82.0146 45.928 82.5213 45.4267 83.1613 45.064C83.8013 44.7013 84.5319 44.52 85.3533 44.52C86.1853 44.52 86.9213 44.7013 87.5613 45.064C88.2119 45.4267 88.7186 45.928 89.0813 46.568C89.4546 47.208 89.6413 47.9493 89.6413 48.792C89.6413 49.624 89.4546 50.3653 89.0813 51.016C88.7186 51.656 88.2119 52.1627 87.5613 52.536C86.9106 52.8987 86.1746 53.08 85.3533 53.08ZM85.3533 52.072C85.9613 52.072 86.4999 51.9387 86.9693 51.672C87.4386 51.3947 87.8066 51.0107 88.0733 50.52C88.3506 50.0187 88.4893 49.4427 88.4893 48.792C88.4893 48.1307 88.3506 47.5547 88.0733 47.064C87.8066 46.5733 87.4386 46.1947 86.9693 45.928C86.4999 45.6507 85.9666 45.512 85.3693 45.512C84.7719 45.512 84.2386 45.6507 83.7693 45.928C83.2999 46.1947 82.9266 46.5733 82.6493 47.064C82.3719 47.5547 82.2333 48.1307 82.2333 48.792C82.2333 49.4427 82.3719 50.0187 82.6493 50.52C82.9266 51.0107 83.2999 51.3947 83.7693 51.672C84.2386 51.9387 84.7666 52.072 85.3533 52.072ZM92.0691 53V44.6H95.7811C96.7305 44.6 97.4771 44.7813 98.0211 45.144C98.5758 45.5067 98.8531 46.04 98.8531 46.744C98.8531 47.4267 98.5918 47.9547 98.0691 48.328C97.5465 48.6907 96.8585 48.872 96.0051 48.872L96.2291 48.536C97.2318 48.536 97.9678 48.7227 98.4371 49.096C98.9065 49.4693 99.1411 50.008 99.1411 50.712C99.1411 51.4373 98.8745 52.0027 98.3411 52.408C97.8185 52.8027 97.0025 53 95.8931 53H92.0691ZM93.1731 52.104H95.8451C96.5598 52.104 97.0985 51.992 97.4611 51.768C97.8345 51.5333 98.0211 51.16 98.0211 50.648C98.0211 50.136 97.8558 49.7627 97.5251 49.528C97.1945 49.2933 96.6718 49.176 95.9571 49.176H93.1731V52.104ZM93.1731 48.328H95.7011C96.3518 48.328 96.8478 48.2053 97.1891 47.96C97.5411 47.7147 97.7171 47.3573 97.7171 46.888C97.7171 46.4187 97.5411 46.0667 97.1891 45.832C96.8478 45.5973 96.3518 45.48 95.7011 45.48H93.1731V48.328ZM105.324 53.08C104.492 53.08 103.745 52.8987 103.084 52.536C102.433 52.1627 101.921 51.656 101.548 51.016C101.174 50.3653 100.988 49.624 100.988 48.792C100.988 47.9493 101.174 47.208 101.548 46.568C101.921 45.928 102.433 45.4267 103.084 45.064C103.745 44.7013 104.492 44.52 105.324 44.52C106.038 44.52 106.684 44.6587 107.26 44.936C107.836 45.2133 108.289 45.6293 108.62 46.184L107.772 46.76C107.484 46.3333 107.126 46.0187 106.7 45.816C106.273 45.6133 105.809 45.512 105.308 45.512C104.71 45.512 104.172 45.6507 103.692 45.928C103.212 46.1947 102.833 46.5733 102.556 47.064C102.278 47.5547 102.14 48.1307 102.14 48.792C102.14 49.4533 102.278 50.0293 102.556 50.52C102.833 51.0107 103.212 51.3947 103.692 51.672C104.172 51.9387 104.71 52.072 105.308 52.072C105.809 52.072 106.273 51.9707 106.7 51.768C107.126 51.5653 107.484 51.256 107.772 50.84L108.62 51.416C108.289 51.96 107.836 52.376 107.26 52.664C106.684 52.9413 106.038 53.08 105.324 53.08ZM116.979 53L113.523 48.84L114.467 48.28L118.323 53H116.979ZM110.819 53V44.6H111.955V53H110.819ZM111.603 49.256V48.28H114.307V49.256H111.603ZM114.563 48.92L113.507 48.76L116.851 44.6H118.083L114.563 48.92ZM125.176 53V51.144L125.128 50.84V47.736C125.128 47.0213 124.925 46.472 124.52 46.088C124.125 45.704 123.533 45.512 122.744 45.512C122.2 45.512 121.682 45.6027 121.192 45.784C120.701 45.9653 120.285 46.2053 119.944 46.504L119.432 45.656C119.858 45.2933 120.37 45.016 120.968 44.824C121.565 44.6213 122.194 44.52 122.856 44.52C123.944 44.52 124.781 44.792 125.368 45.336C125.965 45.8693 126.264 46.6853 126.264 47.784V53H125.176ZM122.28 53.08C121.65 53.08 121.101 52.9787 120.632 52.776C120.173 52.5627 119.821 52.2747 119.576 51.912C119.33 51.5387 119.208 51.112 119.208 50.632C119.208 50.1947 119.309 49.8 119.512 49.448C119.725 49.0853 120.066 48.7973 120.536 48.584C121.016 48.36 121.656 48.248 122.456 48.248H125.352V49.096H122.488C121.677 49.096 121.112 49.24 120.792 49.528C120.482 49.816 120.328 50.1733 120.328 50.6C120.328 51.08 120.514 51.464 120.888 51.752C121.261 52.04 121.784 52.184 122.456 52.184C123.096 52.184 123.645 52.04 124.104 51.752C124.573 51.4533 124.914 51.0267 125.128 50.472L125.384 51.256C125.17 51.8107 124.797 52.2533 124.264 52.584C123.741 52.9147 123.08 53.08 122.28 53.08ZM134.712 53V49.976L134.92 50.216H132.072C130.995 50.216 130.152 49.9813 129.544 49.512C128.936 49.0427 128.632 48.36 128.632 47.464C128.632 46.504 128.957 45.7893 129.608 45.32C130.259 44.84 131.128 44.6 132.216 44.6H135.752V53H134.712ZM128.568 53L130.872 49.768H132.056L129.8 53H128.568ZM134.712 49.64V45.256L134.92 45.592H132.248C131.469 45.592 130.861 45.7413 130.424 46.04C129.997 46.3387 129.784 46.824 129.784 47.496C129.784 48.744 130.579 49.368 132.168 49.368H134.92L134.712 49.64ZM138.271 55.336L138.975 52.376L139.103 53.064C138.858 53.064 138.65 52.984 138.479 52.824C138.319 52.664 138.239 52.456 138.239 52.2C138.239 51.944 138.319 51.736 138.479 51.576C138.65 51.416 138.852 51.336 139.087 51.336C139.332 51.336 139.53 51.4213 139.679 51.592C139.839 51.7627 139.919 51.9653 139.919 52.2C139.919 52.2853 139.914 52.3707 139.903 52.456C139.892 52.5413 139.871 52.6373 139.839 52.744C139.807 52.8507 139.764 52.9787 139.711 53.128L139.039 55.336H138.271ZM150.041 53.096C149.145 53.096 148.372 52.968 147.721 52.712C147.081 52.456 146.585 52.088 146.233 51.608C145.892 51.1173 145.721 50.5413 145.721 49.88C145.721 49.24 145.886 48.696 146.217 48.248C146.558 47.7893 147.049 47.4373 147.689 47.192C148.34 46.9467 149.124 46.824 150.041 46.824C150.948 46.824 151.726 46.9467 152.377 47.192C153.028 47.4373 153.524 47.7893 153.865 48.248C154.217 48.696 154.393 49.24 154.393 49.88C154.393 50.5413 154.217 51.1173 153.865 51.608C153.513 52.088 153.012 52.456 152.361 52.712C151.71 52.968 150.937 53.096 150.041 53.096ZM150.041 52.12C151.033 52.12 151.806 51.9173 152.361 51.512C152.926 51.1067 153.209 50.5573 153.209 49.864C153.209 49.1707 152.926 48.6267 152.361 48.232C151.806 47.8267 151.033 47.624 150.041 47.624C149.049 47.624 148.276 47.8267 147.721 48.232C147.166 48.6267 146.889 49.1707 146.889 49.864C146.889 50.5573 147.166 51.1067 147.721 51.512C148.276 51.9173 149.049 52.12 150.041 52.12ZM150.041 47.48C149.209 47.48 148.5 47.368 147.913 47.144C147.337 46.92 146.894 46.6 146.585 46.184C146.276 45.7573 146.121 45.2507 146.121 44.664C146.121 44.0453 146.281 43.5173 146.601 43.08C146.932 42.632 147.39 42.2907 147.977 42.056C148.564 41.8213 149.252 41.704 150.041 41.704C150.83 41.704 151.518 41.8213 152.105 42.056C152.702 42.2907 153.166 42.632 153.497 43.08C153.828 43.5173 153.993 44.0453 153.993 44.664C153.993 45.2507 153.838 45.7573 153.529 46.184C153.22 46.6 152.766 46.92 152.169 47.144C151.582 47.368 150.873 47.48 150.041 47.48ZM150.041 46.712C150.916 46.712 151.598 46.5307 152.089 46.168C152.58 45.8053 152.825 45.32 152.825 44.712C152.825 44.072 152.569 43.576 152.057 43.224C151.556 42.8613 150.884 42.68 150.041 42.68C149.198 42.68 148.526 42.8613 148.025 43.224C147.524 43.576 147.273 44.0667 147.273 44.696C147.273 45.3147 147.513 45.8053 147.993 46.168C148.484 46.5307 149.166 46.712 150.041 46.712Z" fill="#2A1F20"/>
<path d="M10.125 13.3125C9.54484 13.3125 8.98844 13.082 8.5782 12.6718C8.16797 12.2616 7.9375 11.7052 7.9375 11.125C7.9375 10.5448 8.16797 9.98844 8.5782 9.5782C8.98844 9.16797 9.54484 8.9375 10.125 8.9375C10.7052 8.9375 11.2616 9.16797 11.6718 9.5782C12.082 9.98844 12.3125 10.5448 12.3125 11.125C12.3125 11.4123 12.2559 11.6967 12.146 11.9621C12.0361 12.2275 11.8749 12.4687 11.6718 12.6718C11.4687 12.8749 11.2275 13.0361 10.9621 13.146C10.6967 13.2559 10.4123 13.3125 10.125 13.3125ZM10.125 5C8.50055 5 6.94263 5.64531 5.79397 6.79397C4.64531 7.94263 4 9.50055 4 11.125C4 15.7188 10.125 22.5 10.125 22.5C10.125 22.5 16.25 15.7188 16.25 11.125C16.25 9.50055 15.6047 7.94263 14.456 6.79397C13.3074 5.64531 11.7495 5 10.125 5Z" fill="#FB0F40"/>
<path d="M29.144 20L34.184 8.8H36.232L41.288 20H39.112L34.776 9.904H35.608L31.288 20H29.144ZM31.464 17.408L32.024 15.776H38.072L38.632 17.408H31.464ZM48.6531 19.072V13.152H45.3731L45.3251 14.528C45.3038 15.0187 45.2718 15.4933 45.2291 15.952C45.1865 16.4 45.1171 16.816 45.0211 17.2C44.9251 17.5733 44.7865 17.8827 44.6051 18.128C44.4238 18.3733 44.1838 18.5333 43.8851 18.608L41.9011 18.304C42.2211 18.304 42.4771 18.2027 42.6691 18C42.8718 17.7867 43.0265 17.4987 43.1331 17.136C43.2505 16.7627 43.3358 16.3413 43.3891 15.872C43.4425 15.392 43.4798 14.896 43.5011 14.384L43.6131 11.456H50.6531V19.072H48.6531ZM41.5971 21.904V18.304H51.9171V21.904H50.0451V20H43.4531V21.904H41.5971ZM58.4394 20.112C57.746 20.112 57.1114 19.952 56.5354 19.632C55.97 19.312 55.5167 18.832 55.1754 18.192C54.8447 17.5413 54.6794 16.72 54.6794 15.728C54.6794 14.7253 54.8394 13.904 55.1594 13.264C55.49 12.624 55.938 12.1493 56.5034 11.84C57.0687 11.52 57.714 11.36 58.4394 11.36C59.282 11.36 60.0234 11.5413 60.6634 11.904C61.314 12.2667 61.826 12.7733 62.1994 13.424C62.5834 14.0747 62.7754 14.8427 62.7754 15.728C62.7754 16.6133 62.5834 17.3867 62.1994 18.048C61.826 18.6987 61.314 19.2053 60.6634 19.568C60.0234 19.9307 59.282 20.112 58.4394 20.112ZM53.7034 23.104V11.456H55.6074V13.472L55.5434 15.744L55.7034 18.016V23.104H53.7034ZM58.2154 18.4C58.6954 18.4 59.122 18.2933 59.4954 18.08C59.8794 17.8667 60.1834 17.5573 60.4074 17.152C60.6314 16.7467 60.7434 16.272 60.7434 15.728C60.7434 15.1733 60.6314 14.6987 60.4074 14.304C60.1834 13.8987 59.8794 13.5893 59.4954 13.376C59.122 13.1627 58.6954 13.056 58.2154 13.056C57.7354 13.056 57.3034 13.1627 56.9194 13.376C56.5354 13.5893 56.2314 13.8987 56.0074 14.304C55.7834 14.6987 55.6714 15.1733 55.6714 15.728C55.6714 16.272 55.7834 16.7467 56.0074 17.152C56.2314 17.5573 56.5354 17.8667 56.9194 18.08C57.3034 18.2933 57.7354 18.4 58.2154 18.4ZM68.7499 20.112C67.8005 20.112 66.9685 19.9253 66.2539 19.552C65.5499 19.168 65.0005 18.6453 64.6059 17.984C64.2219 17.3227 64.0299 16.5707 64.0299 15.728C64.0299 14.8747 64.2165 14.1227 64.5899 13.472C64.9739 12.8107 65.4965 12.2933 66.1579 11.92C66.8299 11.5467 67.5925 11.36 68.4459 11.36C69.2779 11.36 70.0192 11.5413 70.6699 11.904C71.3205 12.2667 71.8325 12.7787 72.2059 13.44C72.5792 14.1013 72.7659 14.88 72.7659 15.776C72.7659 15.8613 72.7605 15.9573 72.7499 16.064C72.7499 16.1707 72.7445 16.272 72.7339 16.368H65.6139V15.04H71.6779L70.8939 15.456C70.9045 14.9653 70.8032 14.5333 70.5899 14.16C70.3765 13.7867 70.0832 13.4933 69.7099 13.28C69.3472 13.0667 68.9259 12.96 68.4459 12.96C67.9552 12.96 67.5232 13.0667 67.1499 13.28C66.7872 13.4933 66.4992 13.792 66.2859 14.176C66.0832 14.5493 65.9819 14.992 65.9819 15.504V15.824C65.9819 16.336 66.0992 16.7893 66.3339 17.184C66.5685 17.5787 66.8992 17.8827 67.3259 18.096C67.7525 18.3093 68.2432 18.416 68.7979 18.416C69.2779 18.416 69.7099 18.3413 70.0939 18.192C70.4779 18.0427 70.8192 17.808 71.1179 17.488L72.1899 18.72C71.8059 19.168 71.3205 19.5147 70.7339 19.76C70.1579 19.9947 69.4965 20.112 68.7499 20.112ZM78.8414 20.112C77.9454 20.112 77.1454 19.9253 76.4414 19.552C75.748 19.168 75.204 18.6453 74.8094 17.984C74.4147 17.3227 74.2174 16.5707 74.2174 15.728C74.2174 14.8747 74.4147 14.1227 74.8094 13.472C75.204 12.8107 75.748 12.2933 76.4414 11.92C77.1454 11.5467 77.9454 11.36 78.8414 11.36C79.6734 11.36 80.404 11.5307 81.0334 11.872C81.6734 12.2027 82.1587 12.6933 82.4894 13.344L80.9534 14.24C80.6974 13.8347 80.3827 13.536 80.0094 13.344C79.6467 13.152 79.252 13.056 78.8254 13.056C78.3347 13.056 77.892 13.1627 77.4974 13.376C77.1027 13.5893 76.7934 13.8987 76.5694 14.304C76.3454 14.6987 76.2334 15.1733 76.2334 15.728C76.2334 16.2827 76.3454 16.7627 76.5694 17.168C76.7934 17.5627 77.1027 17.8667 77.4974 18.08C77.892 18.2933 78.3347 18.4 78.8254 18.4C79.252 18.4 79.6467 18.304 80.0094 18.112C80.3827 17.92 80.6974 17.6213 80.9534 17.216L82.4894 18.112C82.1587 18.752 81.6734 19.248 81.0334 19.6C80.404 19.9413 79.6734 20.112 78.8414 20.112ZM84.9676 14.016C84.605 14.016 84.2956 13.8933 84.0396 13.648C83.7836 13.392 83.6556 13.072 83.6556 12.688C83.6556 12.2827 83.7836 11.9627 84.0396 11.728C84.2956 11.4827 84.605 11.36 84.9676 11.36C85.3303 11.36 85.6396 11.4827 85.8956 11.728C86.1516 11.9627 86.2796 12.2827 86.2796 12.688C86.2796 13.072 86.1516 13.392 85.8956 13.648C85.6396 13.8933 85.3303 14.016 84.9676 14.016ZM84.9676 20.112C84.605 20.112 84.2956 19.9893 84.0396 19.744C83.7836 19.488 83.6556 19.168 83.6556 18.784C83.6556 18.3787 83.7836 18.0587 84.0396 17.824C84.2956 17.5787 84.605 17.456 84.9676 17.456C85.3303 17.456 85.6396 17.5787 85.8956 17.824C86.1516 18.0587 86.2796 18.3787 86.2796 18.784C86.2796 19.168 86.1516 19.488 85.8956 19.744C85.6396 19.9893 85.3303 20.112 84.9676 20.112Z" fill="#2A1F20"/>
</svg>
