<svg width="197" height="117" viewBox="0 0 197 117" fill="none" xmlns="http://www.w3.org/2000/svg">
<path d="M4.096 50.792V44.008H5.104V50.792H4.096ZM1.12 47.88V46.936H8.08V47.88H1.12ZM13.0666 53.096C12.256 53.096 11.488 52.968 10.7626 52.712C10.048 52.4453 9.47196 52.0933 9.03463 51.656L9.59463 50.744C9.95729 51.1173 10.4426 51.4267 11.0506 51.672C11.6693 51.9173 12.3413 52.04 13.0666 52.04C13.9946 52.04 14.704 51.8373 15.1946 51.432C15.696 51.0267 15.9466 50.4827 15.9466 49.8C15.9466 49.1173 15.7013 48.5733 15.2106 48.168C14.7306 47.7627 13.968 47.56 12.9226 47.56H12.1226V46.712L15.5786 42.376L15.7386 42.824H9.49863V41.8H16.6986V42.616L13.2426 46.952L12.6826 46.584H13.1146C14.4586 46.584 15.4613 46.8827 16.1226 47.48C16.7946 48.0773 17.1306 48.8453 17.1306 49.784C17.1306 50.4133 16.9813 50.9787 16.6826 51.48C16.384 51.9813 15.9306 52.376 15.3226 52.664C14.7253 52.952 13.9733 53.096 13.0666 53.096ZM20.5188 53L25.3508 42.312L25.7028 42.824H18.7747L19.3668 42.264V44.92H18.2308V41.8H26.4548V42.616L21.7668 53H20.5188ZM31.2118 53.096C30.4118 53.096 29.6491 52.968 28.9238 52.712C28.1984 52.4453 27.6224 52.0933 27.1958 51.656L27.7558 50.744C28.1078 51.1173 28.5878 51.4267 29.1957 51.672C29.8144 51.9173 30.4811 52.04 31.1958 52.04C32.1451 52.04 32.8651 51.832 33.3558 51.416C33.8571 50.9893 34.1078 50.4347 34.1078 49.752C34.1078 49.272 33.9904 48.8613 33.7558 48.52C33.5318 48.168 33.1478 47.896 32.6038 47.704C32.0598 47.512 31.3131 47.416 30.3638 47.416H27.9798L28.5558 41.8H34.6838V42.824H29.0198L29.6118 42.264L29.1158 46.968L28.5238 46.392H30.6198C31.7504 46.392 32.6571 46.5307 33.3398 46.808C34.0224 47.0853 34.5131 47.4747 34.8118 47.976C35.1211 48.4667 35.2758 49.0427 35.2758 49.704C35.2758 50.3333 35.1264 50.9093 34.8278 51.432C34.5291 51.944 34.0811 52.3493 33.4838 52.648C32.8864 52.9467 32.1291 53.096 31.2118 53.096ZM40.7178 53V52.184L45.3738 47.624C45.8004 47.208 46.1204 46.8453 46.3338 46.536C46.5471 46.216 46.6911 45.9173 46.7658 45.64C46.8404 45.3627 46.8778 45.1013 46.8778 44.856C46.8778 44.2053 46.6538 43.6933 46.2058 43.32C45.7684 42.9467 45.1178 42.76 44.2538 42.76C43.5924 42.76 43.0058 42.8613 42.4938 43.064C41.9924 43.2667 41.5604 43.5813 41.1978 44.008L40.3818 43.304C40.8191 42.792 41.3791 42.3973 42.0618 42.12C42.7444 41.8427 43.5071 41.704 44.3498 41.704C45.1071 41.704 45.7631 41.8267 46.3178 42.072C46.8724 42.3067 47.2991 42.6533 47.5978 43.112C47.9071 43.5707 48.0618 44.1093 48.0618 44.728C48.0618 45.0907 48.0084 45.448 47.9018 45.8C47.8058 46.152 47.6244 46.5253 47.3578 46.92C47.1018 47.304 46.7231 47.7413 46.2218 48.232L41.9498 52.424L41.6298 51.976H48.5738V53H40.7178ZM53.5075 41.704C54.4995 41.704 55.3368 41.928 56.0195 42.376C56.7022 42.8133 57.2195 43.448 57.5715 44.28C57.9235 45.112 58.0995 46.12 58.0995 47.304C58.0995 48.5627 57.8808 49.624 57.4435 50.488C57.0168 51.352 56.4195 52.0027 55.6515 52.44C54.8835 52.8773 53.9928 53.096 52.9795 53.096C52.4782 53.096 51.9982 53.048 51.5395 52.952C51.0915 52.856 50.6862 52.7013 50.3235 52.488L50.7875 51.56C51.0755 51.752 51.4062 51.8907 51.7795 51.976C52.1635 52.0507 52.5582 52.088 52.9635 52.088C54.1688 52.088 55.1288 51.704 55.8435 50.936C56.5688 50.168 56.9315 49.0213 56.9315 47.496C56.9315 47.2507 56.9155 46.9573 56.8835 46.616C56.8622 46.2747 56.8035 45.9333 56.7075 45.592L57.1075 45.896C57.0008 46.4507 56.7715 46.9253 56.4195 47.32C56.0782 47.704 55.6515 47.9973 55.1395 48.2C54.6382 48.4027 54.0782 48.504 53.4595 48.504C52.7235 48.504 52.0675 48.3653 51.4915 48.088C50.9262 47.8107 50.4835 47.4213 50.1635 46.92C49.8435 46.4187 49.6835 45.8267 49.6835 45.144C49.6835 44.44 49.8488 43.832 50.1795 43.32C50.5102 42.808 50.9635 42.4133 51.5395 42.136C52.1262 41.848 52.7822 41.704 53.5075 41.704ZM53.5555 42.68C53.0222 42.68 52.5475 42.7813 52.1315 42.984C51.7262 43.176 51.4062 43.4533 51.1715 43.816C50.9368 44.1787 50.8195 44.6107 50.8195 45.112C50.8195 45.848 51.0702 46.4347 51.5715 46.872C52.0835 47.3093 52.7715 47.528 53.6355 47.528C54.2115 47.528 54.7128 47.4213 55.1395 47.208C55.5768 46.9947 55.9128 46.7013 56.1475 46.328C56.3928 45.9547 56.5155 45.5387 56.5155 45.08C56.5155 44.664 56.4035 44.2747 56.1795 43.912C55.9555 43.5493 55.6248 43.256 55.1875 43.032C54.7502 42.7973 54.2062 42.68 53.5555 42.68ZM68.213 53.096C67.317 53.096 66.5437 52.968 65.893 52.712C65.253 52.456 64.757 52.088 64.405 51.608C64.0637 51.1173 63.893 50.5413 63.893 49.88C63.893 49.24 64.0583 48.696 64.389 48.248C64.7303 47.7893 65.221 47.4373 65.861 47.192C66.5117 46.9467 67.2957 46.824 68.213 46.824C69.1197 46.824 69.8983 46.9467 70.549 47.192C71.1997 47.4373 71.6957 47.7893 72.037 48.248C72.389 48.696 72.565 49.24 72.565 49.88C72.565 50.5413 72.389 51.1173 72.037 51.608C71.685 52.088 71.1837 52.456 70.533 52.712C69.8823 52.968 69.109 53.096 68.213 53.096ZM68.213 52.12C69.205 52.12 69.9783 51.9173 70.533 51.512C71.0983 51.1067 71.381 50.5573 71.381 49.864C71.381 49.1707 71.0983 48.6267 70.533 48.232C69.9783 47.8267 69.205 47.624 68.213 47.624C67.221 47.624 66.4477 47.8267 65.893 48.232C65.3383 48.6267 65.061 49.1707 65.061 49.864C65.061 50.5573 65.3383 51.1067 65.893 51.512C66.4477 51.9173 67.221 52.12 68.213 52.12ZM68.213 47.48C67.381 47.48 66.6717 47.368 66.085 47.144C65.509 46.92 65.0663 46.6 64.757 46.184C64.4477 45.7573 64.293 45.2507 64.293 44.664C64.293 44.0453 64.453 43.5173 64.773 43.08C65.1037 42.632 65.5623 42.2907 66.149 42.056C66.7357 41.8213 67.4237 41.704 68.213 41.704C69.0023 41.704 69.6903 41.8213 70.277 42.056C70.8743 42.2907 71.3383 42.632 71.669 43.08C71.9997 43.5173 72.165 44.0453 72.165 44.664C72.165 45.2507 72.0103 45.7573 71.701 46.184C71.3917 46.6 70.9383 46.92 70.341 47.144C69.7543 47.368 69.045 47.48 68.213 47.48ZM68.213 46.712C69.0877 46.712 69.7703 46.5307 70.261 46.168C70.7517 45.8053 70.997 45.32 70.997 44.712C70.997 44.072 70.741 43.576 70.229 43.224C69.7277 42.8613 69.0557 42.68 68.213 42.68C67.3703 42.68 66.6983 42.8613 66.197 43.224C65.6957 43.576 65.445 44.0667 65.445 44.696C65.445 45.3147 65.685 45.8053 66.165 46.168C66.6557 46.5307 67.3383 46.712 68.213 46.712ZM74.2881 49.16V48.168H78.4801V49.16H74.2881ZM84.8585 53.096C83.9945 53.096 83.2265 52.872 82.5545 52.424C81.8825 51.9653 81.3545 51.3147 80.9705 50.472C80.5865 49.6187 80.3945 48.5947 80.3945 47.4C80.3945 46.2053 80.5865 45.1867 80.9705 44.344C81.3545 43.4907 81.8825 42.84 82.5545 42.392C83.2265 41.9333 83.9945 41.704 84.8585 41.704C85.7225 41.704 86.4905 41.9333 87.1625 42.392C87.8345 42.84 88.3625 43.4907 88.7465 44.344C89.1412 45.1867 89.3385 46.2053 89.3385 47.4C89.3385 48.5947 89.1412 49.6187 88.7465 50.472C88.3625 51.3147 87.8345 51.9653 87.1625 52.424C86.4905 52.872 85.7225 53.096 84.8585 53.096ZM84.8585 52.04C85.5198 52.04 86.0958 51.864 86.5865 51.512C87.0772 51.1493 87.4612 50.6267 87.7385 49.944C88.0158 49.2507 88.1545 48.4027 88.1545 47.4C88.1545 46.3973 88.0158 45.5547 87.7385 44.872C87.4612 44.1787 87.0772 43.656 86.5865 43.304C86.0958 42.9413 85.5198 42.76 84.8585 42.76C84.2185 42.76 83.6478 42.9413 83.1465 43.304C82.6452 43.656 82.2558 44.1787 81.9785 44.872C81.7012 45.5547 81.5625 46.3973 81.5625 47.4C81.5625 48.4027 81.7012 49.2507 81.9785 49.944C82.2558 50.6267 82.6452 51.1493 83.1465 51.512C83.6478 51.864 84.2185 52.04 84.8585 52.04ZM94.5243 53.096C93.7243 53.096 92.9616 52.968 92.2363 52.712C91.5109 52.4453 90.9349 52.0933 90.5083 51.656L91.0683 50.744C91.4203 51.1173 91.9003 51.4267 92.5082 51.672C93.1269 51.9173 93.7936 52.04 94.5083 52.04C95.4576 52.04 96.1776 51.832 96.6683 51.416C97.1696 50.9893 97.4203 50.4347 97.4203 49.752C97.4203 49.272 97.3029 48.8613 97.0683 48.52C96.8443 48.168 96.4603 47.896 95.9163 47.704C95.3723 47.512 94.6256 47.416 93.6763 47.416H91.2923L91.8683 41.8H97.9963V42.824H92.3323L92.9243 42.264L92.4283 46.968L91.8363 46.392H93.9323C95.0629 46.392 95.9696 46.5307 96.6523 46.808C97.3349 47.0853 97.8256 47.4747 98.1243 47.976C98.4336 48.4667 98.5883 49.0427 98.5883 49.704C98.5883 50.3333 98.4389 50.9093 98.1403 51.432C97.8416 51.944 97.3936 52.3493 96.7963 52.648C96.1989 52.9467 95.4416 53.096 94.5243 53.096ZM101.8 53L106.632 42.312L106.984 42.824H100.056L100.648 42.264V44.92H99.512V41.8H107.736V42.616L103.048 53H101.8ZM108.585 49.16V48.168H112.777V49.16H108.585ZM118.054 41.704C119.046 41.704 119.884 41.928 120.566 42.376C121.249 42.8133 121.766 43.448 122.118 44.28C122.47 45.112 122.646 46.12 122.646 47.304C122.646 48.5627 122.428 49.624 121.99 50.488C121.564 51.352 120.966 52.0027 120.198 52.44C119.43 52.8773 118.54 53.096 117.526 53.096C117.025 53.096 116.545 53.048 116.086 52.952C115.638 52.856 115.233 52.7013 114.87 52.488L115.334 51.56C115.622 51.752 115.953 51.8907 116.326 51.976C116.71 52.0507 117.105 52.088 117.51 52.088C118.716 52.088 119.676 51.704 120.39 50.936C121.116 50.168 121.478 49.0213 121.478 47.496C121.478 47.2507 121.462 46.9573 121.43 46.616C121.409 46.2747 121.35 45.9333 121.254 45.592L121.654 45.896C121.548 46.4507 121.318 46.9253 120.966 47.32C120.625 47.704 120.198 47.9973 119.686 48.2C119.185 48.4027 118.625 48.504 118.006 48.504C117.27 48.504 116.614 48.3653 116.038 48.088C115.473 47.8107 115.03 47.4213 114.71 46.92C114.39 46.4187 114.23 45.8267 114.23 45.144C114.23 44.44 114.396 43.832 114.726 43.32C115.057 42.808 115.51 42.4133 116.086 42.136C116.673 41.848 117.329 41.704 118.054 41.704ZM118.102 42.68C117.569 42.68 117.094 42.7813 116.678 42.984C116.273 43.176 115.953 43.4533 115.718 43.816C115.484 44.1787 115.366 44.6107 115.366 45.112C115.366 45.848 115.617 46.4347 116.118 46.872C116.63 47.3093 117.318 47.528 118.182 47.528C118.758 47.528 119.26 47.4213 119.686 47.208C120.124 46.9947 120.46 46.7013 120.694 46.328C120.94 45.9547 121.062 45.5387 121.062 45.08C121.062 44.664 120.95 44.2747 120.726 43.912C120.502 43.5493 120.172 43.256 119.734 43.032C119.297 42.7973 118.753 42.68 118.102 42.68ZM127.804 41.704C128.796 41.704 129.634 41.928 130.316 42.376C130.999 42.8133 131.516 43.448 131.868 44.28C132.22 45.112 132.396 46.12 132.396 47.304C132.396 48.5627 132.178 49.624 131.74 50.488C131.314 51.352 130.716 52.0027 129.948 52.44C129.18 52.8773 128.29 53.096 127.276 53.096C126.775 53.096 126.295 53.048 125.836 52.952C125.388 52.856 124.983 52.7013 124.62 52.488L125.084 51.56C125.372 51.752 125.703 51.8907 126.076 51.976C126.46 52.0507 126.855 52.088 127.26 52.088C128.466 52.088 129.426 51.704 130.14 50.936C130.866 50.168 131.228 49.0213 131.228 47.496C131.228 47.2507 131.212 46.9573 131.18 46.616C131.159 46.2747 131.1 45.9333 131.004 45.592L131.404 45.896C131.298 46.4507 131.068 46.9253 130.716 47.32C130.375 47.704 129.948 47.9973 129.436 48.2C128.935 48.4027 128.375 48.504 127.756 48.504C127.02 48.504 126.364 48.3653 125.788 48.088C125.223 47.8107 124.78 47.4213 124.46 46.92C124.14 46.4187 123.98 45.8267 123.98 45.144C123.98 44.44 124.146 43.832 124.476 43.32C124.807 42.808 125.26 42.4133 125.836 42.136C126.423 41.848 127.079 41.704 127.804 41.704ZM127.852 42.68C127.319 42.68 126.844 42.7813 126.428 42.984C126.023 43.176 125.703 43.4533 125.468 43.816C125.234 44.1787 125.116 44.6107 125.116 45.112C125.116 45.848 125.367 46.4347 125.868 46.872C126.38 47.3093 127.068 47.528 127.932 47.528C128.508 47.528 129.01 47.4213 129.436 47.208C129.874 46.9947 130.21 46.7013 130.444 46.328C130.69 45.9547 130.812 45.5387 130.812 45.08C130.812 44.664 130.7 44.2747 130.476 43.912C130.252 43.5493 129.922 43.256 129.484 43.032C129.047 42.7973 128.503 42.68 127.852 42.68ZM138.322 53.096C137.426 53.096 136.653 52.968 136.002 52.712C135.362 52.456 134.866 52.088 134.514 51.608C134.173 51.1173 134.002 50.5413 134.002 49.88C134.002 49.24 134.168 48.696 134.498 48.248C134.84 47.7893 135.33 47.4373 135.97 47.192C136.621 46.9467 137.405 46.824 138.322 46.824C139.229 46.824 140.008 46.9467 140.658 47.192C141.309 47.4373 141.805 47.7893 142.146 48.248C142.498 48.696 142.674 49.24 142.674 49.88C142.674 50.5413 142.498 51.1173 142.146 51.608C141.794 52.088 141.293 52.456 140.642 52.712C139.992 52.968 139.218 53.096 138.322 53.096ZM138.322 52.12C139.314 52.12 140.088 51.9173 140.642 51.512C141.208 51.1067 141.49 50.5573 141.49 49.864C141.49 49.1707 141.208 48.6267 140.642 48.232C140.088 47.8267 139.314 47.624 138.322 47.624C137.33 47.624 136.557 47.8267 136.002 48.232C135.448 48.6267 135.17 49.1707 135.17 49.864C135.17 50.5573 135.448 51.1067 136.002 51.512C136.557 51.9173 137.33 52.12 138.322 52.12ZM138.322 47.48C137.49 47.48 136.781 47.368 136.194 47.144C135.618 46.92 135.176 46.6 134.866 46.184C134.557 45.7573 134.402 45.2507 134.402 44.664C134.402 44.0453 134.562 43.5173 134.882 43.08C135.213 42.632 135.672 42.2907 136.258 42.056C136.845 41.8213 137.533 41.704 138.322 41.704C139.112 41.704 139.8 41.8213 140.386 42.056C140.984 42.2907 141.448 42.632 141.778 43.08C142.109 43.5173 142.274 44.0453 142.274 44.664C142.274 45.2507 142.12 45.7573 141.81 46.184C141.501 46.6 141.048 46.92 140.45 47.144C139.864 47.368 139.154 47.48 138.322 47.48ZM138.322 46.712C139.197 46.712 139.88 46.5307 140.37 46.168C140.861 45.8053 141.106 45.32 141.106 44.712C141.106 44.072 140.85 43.576 140.338 43.224C139.837 42.8613 139.165 42.68 138.322 42.68C137.48 42.68 136.808 42.8613 136.306 43.224C135.805 43.576 135.554 44.0667 135.554 44.696C135.554 45.3147 135.794 45.8053 136.274 46.168C136.765 46.5307 137.448 46.712 138.322 46.712ZM149.513 53V41.8H150.489L155.609 50.536H155.097L160.169 41.8H161.145V53H160.009V43.576H160.281L155.609 51.576H155.049L150.345 43.576H150.649V53H149.513ZM167.143 53V42.504L167.463 42.824H163.207V41.8H172.247V42.824H168.007L168.311 42.504V53H167.143ZM179.065 53.096C178.223 53.096 177.444 52.9573 176.729 52.68C176.015 52.392 175.396 51.992 174.873 51.48C174.351 50.968 173.94 50.3653 173.641 49.672C173.353 48.9787 173.209 48.2213 173.209 47.4C173.209 46.5787 173.353 45.8213 173.641 45.128C173.94 44.4347 174.351 43.832 174.873 43.32C175.407 42.808 176.031 42.4133 176.745 42.136C177.46 41.848 178.239 41.704 179.081 41.704C179.892 41.704 180.655 41.8427 181.369 42.12C182.084 42.3867 182.687 42.792 183.177 43.336L182.425 44.088C181.967 43.6187 181.46 43.2827 180.905 43.08C180.351 42.8667 179.753 42.76 179.113 42.76C178.441 42.76 177.817 42.8773 177.241 43.112C176.665 43.336 176.164 43.6613 175.737 44.088C175.311 44.504 174.975 44.9947 174.729 45.56C174.495 46.1147 174.377 46.728 174.377 47.4C174.377 48.072 174.495 48.6907 174.729 49.256C174.975 49.8107 175.311 50.3013 175.737 50.728C176.164 51.144 176.665 51.4693 177.241 51.704C177.817 51.928 178.441 52.04 179.113 52.04C179.753 52.04 180.351 51.9333 180.905 51.72C181.46 51.5067 181.967 51.1653 182.425 50.696L183.177 51.448C182.687 51.992 182.084 52.4027 181.369 52.68C180.655 52.9573 179.887 53.096 179.065 53.096ZM4.096 78.792V72.008H5.104V78.792H4.096ZM1.12 75.88V74.936H8.08V75.88H1.12ZM13.0666 81.096C12.256 81.096 11.488 80.968 10.7626 80.712C10.048 80.4453 9.47196 80.0933 9.03463 79.656L9.59463 78.744C9.95729 79.1173 10.4426 79.4267 11.0506 79.672C11.6693 79.9173 12.3413 80.04 13.0666 80.04C13.9946 80.04 14.704 79.8373 15.1946 79.432C15.696 79.0267 15.9466 78.4827 15.9466 77.8C15.9466 77.1173 15.7013 76.5733 15.2106 76.168C14.7306 75.7627 13.968 75.56 12.9226 75.56H12.1226V74.712L15.5786 70.376L15.7386 70.824H9.49863V69.8H16.6986V70.616L13.2426 74.952L12.6826 74.584H13.1146C14.4586 74.584 15.4613 74.8827 16.1226 75.48C16.7946 76.0773 17.1306 76.8453 17.1306 77.784C17.1306 78.4133 16.9813 78.9787 16.6826 79.48C16.384 79.9813 15.9306 80.376 15.3226 80.664C14.7253 80.952 13.9733 81.096 13.0666 81.096ZM20.5188 81L25.3508 70.312L25.7028 70.824H18.7747L19.3668 70.264V72.92H18.2308V69.8H26.4548V70.616L21.7668 81H20.5188ZM31.2118 81.096C30.4118 81.096 29.6491 80.968 28.9238 80.712C28.1984 80.4453 27.6224 80.0933 27.1958 79.656L27.7558 78.744C28.1078 79.1173 28.5878 79.4267 29.1957 79.672C29.8144 79.9173 30.4811 80.04 31.1958 80.04C32.1451 80.04 32.8651 79.832 33.3558 79.416C33.8571 78.9893 34.1078 78.4347 34.1078 77.752C34.1078 77.272 33.9904 76.8613 33.7558 76.52C33.5318 76.168 33.1478 75.896 32.6038 75.704C32.0598 75.512 31.3131 75.416 30.3638 75.416H27.9798L28.5558 69.8H34.6838V70.824H29.0198L29.6118 70.264L29.1158 74.968L28.5238 74.392H30.6198C31.7504 74.392 32.6571 74.5307 33.3398 74.808C34.0224 75.0853 34.5131 75.4747 34.8118 75.976C35.1211 76.4667 35.2758 77.0427 35.2758 77.704C35.2758 78.3333 35.1264 78.9093 34.8278 79.432C34.5291 79.944 34.0811 80.3493 33.4838 80.648C32.8864 80.9467 32.1291 81.096 31.2118 81.096ZM40.7178 81V80.184L45.3738 75.624C45.8004 75.208 46.1204 74.8453 46.3338 74.536C46.5471 74.216 46.6911 73.9173 46.7658 73.64C46.8404 73.3627 46.8778 73.1013 46.8778 72.856C46.8778 72.2053 46.6538 71.6933 46.2058 71.32C45.7684 70.9467 45.1178 70.76 44.2538 70.76C43.5924 70.76 43.0058 70.8613 42.4938 71.064C41.9924 71.2667 41.5604 71.5813 41.1978 72.008L40.3818 71.304C40.8191 70.792 41.3791 70.3973 42.0618 70.12C42.7444 69.8427 43.5071 69.704 44.3498 69.704C45.1071 69.704 45.7631 69.8267 46.3178 70.072C46.8724 70.3067 47.2991 70.6533 47.5978 71.112C47.9071 71.5707 48.0618 72.1093 48.0618 72.728C48.0618 73.0907 48.0084 73.448 47.9018 73.8C47.8058 74.152 47.6244 74.5253 47.3578 74.92C47.1018 75.304 46.7231 75.7413 46.2218 76.232L41.9498 80.424L41.6298 79.976H48.5738V81H40.7178ZM53.5075 69.704C54.4995 69.704 55.3368 69.928 56.0195 70.376C56.7022 70.8133 57.2195 71.448 57.5715 72.28C57.9235 73.112 58.0995 74.12 58.0995 75.304C58.0995 76.5627 57.8808 77.624 57.4435 78.488C57.0168 79.352 56.4195 80.0027 55.6515 80.44C54.8835 80.8773 53.9928 81.096 52.9795 81.096C52.4782 81.096 51.9982 81.048 51.5395 80.952C51.0915 80.856 50.6862 80.7013 50.3235 80.488L50.7875 79.56C51.0755 79.752 51.4062 79.8907 51.7795 79.976C52.1635 80.0507 52.5582 80.088 52.9635 80.088C54.1688 80.088 55.1288 79.704 55.8435 78.936C56.5688 78.168 56.9315 77.0213 56.9315 75.496C56.9315 75.2507 56.9155 74.9573 56.8835 74.616C56.8622 74.2747 56.8035 73.9333 56.7075 73.592L57.1075 73.896C57.0008 74.4507 56.7715 74.9253 56.4195 75.32C56.0782 75.704 55.6515 75.9973 55.1395 76.2C54.6382 76.4027 54.0782 76.504 53.4595 76.504C52.7235 76.504 52.0675 76.3653 51.4915 76.088C50.9262 75.8107 50.4835 75.4213 50.1635 74.92C49.8435 74.4187 49.6835 73.8267 49.6835 73.144C49.6835 72.44 49.8488 71.832 50.1795 71.32C50.5102 70.808 50.9635 70.4133 51.5395 70.136C52.1262 69.848 52.7822 69.704 53.5075 69.704ZM53.5555 70.68C53.0222 70.68 52.5475 70.7813 52.1315 70.984C51.7262 71.176 51.4062 71.4533 51.1715 71.816C50.9368 72.1787 50.8195 72.6107 50.8195 73.112C50.8195 73.848 51.0702 74.4347 51.5715 74.872C52.0835 75.3093 52.7715 75.528 53.6355 75.528C54.2115 75.528 54.7128 75.4213 55.1395 75.208C55.5768 74.9947 55.9128 74.7013 56.1475 74.328C56.3928 73.9547 56.5155 73.5387 56.5155 73.08C56.5155 72.664 56.4035 72.2747 56.1795 71.912C55.9555 71.5493 55.6248 71.256 55.1875 71.032C54.7502 70.7973 54.2062 70.68 53.5555 70.68ZM67.301 81.096C66.4903 81.096 65.7223 80.968 64.997 80.712C64.2823 80.4453 63.7063 80.0933 63.269 79.656L63.829 78.744C64.1917 79.1173 64.677 79.4267 65.285 79.672C65.9037 79.9173 66.5757 80.04 67.301 80.04C68.229 80.04 68.9383 79.8373 69.429 79.432C69.9303 79.0267 70.181 78.4827 70.181 77.8C70.181 77.1173 69.9357 76.5733 69.445 76.168C68.965 75.7627 68.2023 75.56 67.157 75.56H66.357V74.712L69.813 70.376L69.973 70.824H63.733V69.8H70.933V70.616L67.477 74.952L66.917 74.584H67.349C68.693 74.584 69.6957 74.8827 70.357 75.48C71.029 76.0773 71.365 76.8453 71.365 77.784C71.365 78.4133 71.2157 78.9787 70.917 79.48C70.6183 79.9813 70.165 80.376 69.557 80.664C68.9597 80.952 68.2077 81.096 67.301 81.096ZM73.1163 77.16V76.168H77.3083V77.16H73.1163ZM83.3536 81.096C82.4576 81.096 81.6843 80.968 81.0336 80.712C80.3936 80.456 79.8976 80.088 79.5456 79.608C79.2043 79.1173 79.0336 78.5413 79.0336 77.88C79.0336 77.24 79.199 76.696 79.5296 76.248C79.871 75.7893 80.3616 75.4373 81.0016 75.192C81.6523 74.9467 82.4363 74.824 83.3536 74.824C84.2603 74.824 85.039 74.9467 85.6896 75.192C86.3403 75.4373 86.8363 75.7893 87.1776 76.248C87.5296 76.696 87.7056 77.24 87.7056 77.88C87.7056 78.5413 87.5296 79.1173 87.1776 79.608C86.8256 80.088 86.3243 80.456 85.6736 80.712C85.023 80.968 84.2496 81.096 83.3536 81.096ZM83.3536 80.12C84.3456 80.12 85.119 79.9173 85.6736 79.512C86.239 79.1067 86.5216 78.5573 86.5216 77.864C86.5216 77.1707 86.239 76.6267 85.6736 76.232C85.119 75.8267 84.3456 75.624 83.3536 75.624C82.3616 75.624 81.5883 75.8267 81.0336 76.232C80.479 76.6267 80.2016 77.1707 80.2016 77.864C80.2016 78.5573 80.479 79.1067 81.0336 79.512C81.5883 79.9173 82.3616 80.12 83.3536 80.12ZM83.3536 75.48C82.5216 75.48 81.8123 75.368 81.2256 75.144C80.6496 74.92 80.207 74.6 79.8976 74.184C79.5883 73.7573 79.4336 73.2507 79.4336 72.664C79.4336 72.0453 79.5936 71.5173 79.9136 71.08C80.2443 70.632 80.703 70.2907 81.2896 70.056C81.8763 69.8213 82.5643 69.704 83.3536 69.704C84.143 69.704 84.831 69.8213 85.4176 70.056C86.015 70.2907 86.479 70.632 86.8096 71.08C87.1403 71.5173 87.3056 72.0453 87.3056 72.664C87.3056 73.2507 87.151 73.7573 86.8416 74.184C86.5323 74.6 86.079 74.92 85.4816 75.144C84.895 75.368 84.1856 75.48 83.3536 75.48ZM83.3536 74.712C84.2283 74.712 84.911 74.5307 85.4016 74.168C85.8923 73.8053 86.1376 73.32 86.1376 72.712C86.1376 72.072 85.8816 71.576 85.3696 71.224C84.8683 70.8613 84.1963 70.68 83.3536 70.68C82.511 70.68 81.839 70.8613 81.3376 71.224C80.8363 71.576 80.5856 72.0667 80.5856 72.696C80.5856 73.3147 80.8256 73.8053 81.3056 74.168C81.7963 74.5307 82.479 74.712 83.3536 74.712ZM92.7888 69.704C93.7808 69.704 94.6181 69.928 95.3008 70.376C95.9834 70.8133 96.5008 71.448 96.8528 72.28C97.2048 73.112 97.3808 74.12 97.3808 75.304C97.3808 76.5627 97.1621 77.624 96.7248 78.488C96.2981 79.352 95.7008 80.0027 94.9328 80.44C94.1648 80.8773 93.2741 81.096 92.2608 81.096C91.7594 81.096 91.2794 81.048 90.8207 80.952C90.3728 80.856 89.9674 80.7013 89.6048 80.488L90.0688 79.56C90.3568 79.752 90.6874 79.8907 91.0608 79.976C91.4448 80.0507 91.8394 80.088 92.2448 80.088C93.4501 80.088 94.4101 79.704 95.1248 78.936C95.8501 78.168 96.2128 77.0213 96.2128 75.496C96.2128 75.2507 96.1968 74.9573 96.1648 74.616C96.1434 74.2747 96.0848 73.9333 95.9888 73.592L96.3888 73.896C96.2821 74.4507 96.0528 74.9253 95.7008 75.32C95.3594 75.704 94.9328 75.9973 94.4208 76.2C93.9194 76.4027 93.3594 76.504 92.7408 76.504C92.0048 76.504 91.3488 76.3653 90.7728 76.088C90.2074 75.8107 89.7648 75.4213 89.4448 74.92C89.1248 74.4187 88.9648 73.8267 88.9648 73.144C88.9648 72.44 89.1301 71.832 89.4608 71.32C89.7914 70.808 90.2448 70.4133 90.8207 70.136C91.4074 69.848 92.0634 69.704 92.7888 69.704ZM92.8368 70.68C92.3034 70.68 91.8288 70.7813 91.4128 70.984C91.0074 71.176 90.6874 71.4533 90.4528 71.816C90.2181 72.1787 90.1008 72.6107 90.1008 73.112C90.1008 73.848 90.3514 74.4347 90.8528 74.872C91.3648 75.3093 92.0528 75.528 92.9168 75.528C93.4928 75.528 93.9941 75.4213 94.4208 75.208C94.8581 74.9947 95.1941 74.7013 95.4288 74.328C95.6741 73.9547 95.7968 73.5387 95.7968 73.08C95.7968 72.664 95.6848 72.2747 95.4608 71.912C95.2368 71.5493 94.9061 71.256 94.4688 71.032C94.0314 70.7973 93.4874 70.68 92.8368 70.68ZM102.539 69.704C103.531 69.704 104.368 69.928 105.051 70.376C105.733 70.8133 106.251 71.448 106.603 72.28C106.955 73.112 107.131 74.12 107.131 75.304C107.131 76.5627 106.912 77.624 106.475 78.488C106.048 79.352 105.451 80.0027 104.683 80.44C103.915 80.8773 103.024 81.096 102.011 81.096C101.509 81.096 101.029 81.048 100.571 80.952C100.123 80.856 99.7174 80.7013 99.3548 80.488L99.8188 79.56C100.107 79.752 100.437 79.8907 100.811 79.976C101.195 80.0507 101.589 80.088 101.995 80.088C103.2 80.088 104.16 79.704 104.875 78.936C105.6 78.168 105.963 77.0213 105.963 75.496C105.963 75.2507 105.947 74.9573 105.915 74.616C105.893 74.2747 105.835 73.9333 105.739 73.592L106.139 73.896C106.032 74.4507 105.803 74.9253 105.451 75.32C105.109 75.704 104.683 75.9973 104.171 76.2C103.669 76.4027 103.109 76.504 102.491 76.504C101.755 76.504 101.099 76.3653 100.523 76.088C99.9574 75.8107 99.5148 75.4213 99.1948 74.92C98.8748 74.4187 98.7148 73.8267 98.7148 73.144C98.7148 72.44 98.8801 71.832 99.2108 71.32C99.5414 70.808 99.9948 70.4133 100.571 70.136C101.157 69.848 101.813 69.704 102.539 69.704ZM102.587 70.68C102.053 70.68 101.579 70.7813 101.163 70.984C100.757 71.176 100.437 71.4533 100.203 71.816C99.9681 72.1787 99.8508 72.6107 99.8508 73.112C99.8508 73.848 100.101 74.4347 100.603 74.872C101.115 75.3093 101.803 75.528 102.667 75.528C103.243 75.528 103.744 75.4213 104.171 75.208C104.608 74.9947 104.944 74.7013 105.179 74.328C105.424 73.9547 105.547 73.5387 105.547 73.08C105.547 72.664 105.435 72.2747 105.211 71.912C104.987 71.5493 104.656 71.256 104.219 71.032C103.781 70.7973 103.237 70.68 102.587 70.68ZM109.054 77.16V76.168H113.246V77.16H109.054ZM116.847 81L121.679 70.312L122.031 70.824H115.103L115.695 70.264V72.92H114.559V69.8H122.783V70.616L118.095 81H116.847ZM123.062 78.056V77.224L128.998 69.8H130.278L124.39 77.224L123.766 77.032H132.774V78.056H123.062ZM129.382 81V78.056L129.414 77.032V74.44H130.534V81H129.382ZM135.378 81V70.28L135.89 70.824H132.738V69.8H136.53V81H135.378ZM142.803 81L147.923 69.8H149.091L154.211 81H152.963L148.259 70.488H148.739L144.035 81H142.803ZM144.819 78.008L145.171 77.048H151.683L152.035 78.008H144.819ZM156.597 81V70.28L157.109 70.824H153.957V69.8H157.749V81H156.597ZM4.096 106.792V100.008H5.104V106.792H4.096ZM1.12 103.88V102.936H8.08V103.88H1.12ZM13.0666 109.096C12.256 109.096 11.488 108.968 10.7626 108.712C10.048 108.445 9.47196 108.093 9.03463 107.656L9.59463 106.744C9.95729 107.117 10.4426 107.427 11.0506 107.672C11.6693 107.917 12.3413 108.04 13.0666 108.04C13.9946 108.04 14.704 107.837 15.1946 107.432C15.696 107.027 15.9466 106.483 15.9466 105.8C15.9466 105.117 15.7013 104.573 15.2106 104.168C14.7306 103.763 13.968 103.56 12.9226 103.56H12.1226V102.712L15.5786 98.376L15.7386 98.824H9.49863V97.8H16.6986V98.616L13.2426 102.952L12.6826 102.584H13.1146C14.4586 102.584 15.4613 102.883 16.1226 103.48C16.7946 104.077 17.1306 104.845 17.1306 105.784C17.1306 106.413 16.9813 106.979 16.6826 107.48C16.384 107.981 15.9306 108.376 15.3226 108.664C14.7253 108.952 13.9733 109.096 13.0666 109.096ZM20.5188 109L25.3508 98.312L25.7028 98.824H18.7747L19.3668 98.264V100.92H18.2308V97.8H26.4548V98.616L21.7668 109H20.5188ZM31.2118 109.096C30.4118 109.096 29.6491 108.968 28.9238 108.712C28.1984 108.445 27.6224 108.093 27.1958 107.656L27.7558 106.744C28.1078 107.117 28.5878 107.427 29.1957 107.672C29.8144 107.917 30.4811 108.04 31.1958 108.04C32.1451 108.04 32.8651 107.832 33.3558 107.416C33.8571 106.989 34.1078 106.435 34.1078 105.752C34.1078 105.272 33.9904 104.861 33.7558 104.52C33.5318 104.168 33.1478 103.896 32.6038 103.704C32.0598 103.512 31.3131 103.416 30.3638 103.416H27.9798L28.5558 97.8H34.6838V98.824H29.0198L29.6118 98.264L29.1158 102.968L28.5238 102.392H30.6198C31.7504 102.392 32.6571 102.531 33.3398 102.808C34.0224 103.085 34.5131 103.475 34.8118 103.976C35.1211 104.467 35.2758 105.043 35.2758 105.704C35.2758 106.333 35.1264 106.909 34.8278 107.432C34.5291 107.944 34.0811 108.349 33.4838 108.648C32.8864 108.947 32.1291 109.096 31.2118 109.096ZM42.8778 109V98.28L43.3898 98.824H40.2378V97.8H44.0298V109H42.8778ZM48.675 109L53.507 98.312L53.859 98.824H46.931L47.523 98.264V100.92H46.387V97.8H54.611V98.616L49.923 109H48.675ZM63.6604 109.096C62.8497 109.096 62.0817 108.968 61.3564 108.712C60.6417 108.445 60.0657 108.093 59.6284 107.656L60.1884 106.744C60.551 107.117 61.0364 107.427 61.6444 107.672C62.263 107.917 62.935 108.04 63.6604 108.04C64.5884 108.04 65.2977 107.837 65.7884 107.432C66.2897 107.027 66.5404 106.483 66.5404 105.8C66.5404 105.117 66.295 104.573 65.8044 104.168C65.3244 103.763 64.5617 103.56 63.5164 103.56H62.7164V102.712L66.1724 98.376L66.3324 98.824H60.0924V97.8H67.2924V98.616L63.8364 102.952L63.2764 102.584H63.7084C65.0524 102.584 66.055 102.883 66.7164 103.48C67.3884 104.077 67.7244 104.845 67.7244 105.784C67.7244 106.413 67.575 106.979 67.2764 107.48C66.9777 107.981 66.5244 108.376 65.9164 108.664C65.319 108.952 64.567 109.096 63.6604 109.096ZM73.6036 109.096C72.7076 109.096 71.9343 108.968 71.2836 108.712C70.6436 108.456 70.1476 108.088 69.7956 107.608C69.4543 107.117 69.2836 106.541 69.2836 105.88C69.2836 105.24 69.449 104.696 69.7796 104.248C70.121 103.789 70.6116 103.437 71.2516 103.192C71.9023 102.947 72.6863 102.824 73.6036 102.824C74.5103 102.824 75.289 102.947 75.9396 103.192C76.5903 103.437 77.0863 103.789 77.4276 104.248C77.7796 104.696 77.9556 105.24 77.9556 105.88C77.9556 106.541 77.7796 107.117 77.4276 107.608C77.0756 108.088 76.5743 108.456 75.9236 108.712C75.273 108.968 74.4996 109.096 73.6036 109.096ZM73.6036 108.12C74.5956 108.12 75.369 107.917 75.9236 107.512C76.489 107.107 76.7716 106.557 76.7716 105.864C76.7716 105.171 76.489 104.627 75.9236 104.232C75.369 103.827 74.5956 103.624 73.6036 103.624C72.6116 103.624 71.8383 103.827 71.2836 104.232C70.729 104.627 70.4516 105.171 70.4516 105.864C70.4516 106.557 70.729 107.107 71.2836 107.512C71.8383 107.917 72.6116 108.12 73.6036 108.12ZM73.6036 103.48C72.7716 103.48 72.0623 103.368 71.4756 103.144C70.8996 102.92 70.457 102.6 70.1476 102.184C69.8383 101.757 69.6836 101.251 69.6836 100.664C69.6836 100.045 69.8436 99.5173 70.1636 99.08C70.4943 98.632 70.953 98.2907 71.5396 98.056C72.1263 97.8213 72.8143 97.704 73.6036 97.704C74.393 97.704 75.081 97.8213 75.6676 98.056C76.265 98.2907 76.729 98.632 77.0596 99.08C77.3903 99.5173 77.5556 100.045 77.5556 100.664C77.5556 101.251 77.401 101.757 77.0916 102.184C76.7823 102.6 76.329 102.92 75.7316 103.144C75.145 103.368 74.4356 103.48 73.6036 103.48ZM73.6036 102.712C74.4783 102.712 75.161 102.531 75.6516 102.168C76.1423 101.805 76.3876 101.32 76.3876 100.712C76.3876 100.072 76.1316 99.576 75.6196 99.224C75.1183 98.8613 74.4463 98.68 73.6036 98.68C72.761 98.68 72.089 98.8613 71.5876 99.224C71.0863 99.576 70.8356 100.067 70.8356 100.696C70.8356 101.315 71.0756 101.805 71.5556 102.168C72.0463 102.531 72.729 102.712 73.6036 102.712ZM83.8068 109.096C82.9108 109.096 82.1374 108.968 81.4868 108.712C80.8468 108.456 80.3508 108.088 79.9988 107.608C79.6574 107.117 79.4868 106.541 79.4868 105.88C79.4868 105.24 79.6521 104.696 79.9828 104.248C80.3241 103.789 80.8148 103.437 81.4548 103.192C82.1054 102.947 82.8894 102.824 83.8068 102.824C84.7134 102.824 85.4921 102.947 86.1428 103.192C86.7934 103.437 87.2894 103.789 87.6308 104.248C87.9828 104.696 88.1588 105.24 88.1588 105.88C88.1588 106.541 87.9828 107.117 87.6308 107.608C87.2788 108.088 86.7774 108.456 86.1268 108.712C85.4761 108.968 84.7028 109.096 83.8068 109.096ZM83.8068 108.12C84.7988 108.12 85.5721 107.917 86.1268 107.512C86.6921 107.107 86.9748 106.557 86.9748 105.864C86.9748 105.171 86.6921 104.627 86.1268 104.232C85.5721 103.827 84.7988 103.624 83.8068 103.624C82.8148 103.624 82.0414 103.827 81.4868 104.232C80.9321 104.627 80.6548 105.171 80.6548 105.864C80.6548 106.557 80.9321 107.107 81.4868 107.512C82.0414 107.917 82.8148 108.12 83.8068 108.12ZM83.8068 103.48C82.9748 103.48 82.2654 103.368 81.6788 103.144C81.1028 102.92 80.6601 102.6 80.3508 102.184C80.0414 101.757 79.8868 101.251 79.8868 100.664C79.8868 100.045 80.0468 99.5173 80.3668 99.08C80.6974 98.632 81.1561 98.2907 81.7428 98.056C82.3294 97.8213 83.0174 97.704 83.8068 97.704C84.5961 97.704 85.2841 97.8213 85.8708 98.056C86.4681 98.2907 86.9321 98.632 87.2628 99.08C87.5934 99.5173 87.7587 100.045 87.7587 100.664C87.7587 101.251 87.6041 101.757 87.2948 102.184C86.9854 102.6 86.5321 102.92 85.9348 103.144C85.3481 103.368 84.6388 103.48 83.8068 103.48ZM83.8068 102.712C84.6814 102.712 85.3641 102.531 85.8548 102.168C86.3454 101.805 86.5908 101.32 86.5908 100.712C86.5908 100.072 86.3348 99.576 85.8228 99.224C85.3214 98.8613 84.6494 98.68 83.8068 98.68C82.9641 98.68 82.2921 98.8613 81.7908 99.224C81.2894 99.576 81.0388 100.067 81.0388 100.696C81.0388 101.315 81.2788 101.805 81.7588 102.168C82.2494 102.531 82.9321 102.712 83.8068 102.712ZM98.5334 109.096C97.5414 109.096 96.704 108.877 96.0214 108.44C95.3387 107.992 94.8214 107.352 94.4694 106.52C94.1174 105.677 93.9414 104.669 93.9414 103.496C93.9414 102.227 94.1547 101.165 94.5814 100.312C95.0187 99.448 95.6214 98.7973 96.3894 98.36C97.1574 97.9227 98.048 97.704 99.0614 97.704C99.5627 97.704 100.043 97.752 100.501 97.848C100.96 97.944 101.365 98.0987 101.717 98.312L101.253 99.24C100.965 99.048 100.635 98.9147 100.261 98.84C99.888 98.7547 99.4934 98.712 99.0774 98.712C97.872 98.712 96.9067 99.096 96.1814 99.864C95.4667 100.632 95.1094 101.779 95.1094 103.304C95.1094 103.539 95.12 103.832 95.1414 104.184C95.1734 104.525 95.2374 104.867 95.3334 105.208L94.9334 104.904C95.0507 104.349 95.28 103.88 95.6214 103.496C95.9627 103.101 96.3894 102.803 96.9014 102.6C97.4134 102.397 97.9734 102.296 98.5814 102.296C99.328 102.296 99.984 102.435 100.549 102.712C101.115 102.989 101.557 103.379 101.877 103.88C102.197 104.381 102.357 104.973 102.357 105.656C102.357 106.349 102.192 106.957 101.861 107.48C101.531 107.992 101.072 108.392 100.485 108.68C99.9094 108.957 99.2587 109.096 98.5334 109.096ZM98.4854 108.12C99.0187 108.12 99.488 108.024 99.8934 107.832C100.309 107.629 100.635 107.347 100.869 106.984C101.104 106.611 101.221 106.179 101.221 105.688C101.221 104.952 100.965 104.365 100.453 103.928C99.952 103.491 99.2694 103.272 98.4054 103.272C97.8294 103.272 97.328 103.379 96.9014 103.592C96.4747 103.805 96.1387 104.099 95.8934 104.472C95.648 104.835 95.5254 105.251 95.5254 105.72C95.5254 106.125 95.6374 106.515 95.8614 106.888C96.0854 107.251 96.416 107.549 96.8534 107.784C97.3014 108.008 97.8454 108.12 98.4854 108.12ZM105.643 109V98.28L106.155 98.824H103.003V97.8H106.795V109H105.643ZM113.468 106.056V105.224L119.404 97.8H120.684L114.796 105.224L114.172 105.032H123.18V106.056H113.468ZM119.788 109V106.056L119.82 105.032V102.44H120.94V109H119.788ZM125.784 109V98.28L126.296 98.824H123.144V97.8H126.936V109H125.784Z" fill="#2A1F20"/>
<path d="M13.5568 15.9061L13.1018 16.3591C13.1018 16.3591 12.0188 17.4351 9.0638 14.4971C6.10882 11.559 7.19181 10.483 7.19181 10.483L7.47781 10.197C8.18481 9.49502 8.25181 8.36701 7.63481 7.543L6.37482 5.85999C5.61082 4.83998 4.13584 4.70498 3.26084 5.57498L1.69085 7.135C1.25785 7.567 0.967856 8.125 1.00286 8.74501C1.09286 10.332 1.81085 13.7451 5.81482 17.7271C10.0618 21.9491 14.0468 22.1171 15.6758 21.9651C16.1918 21.9171 16.6398 21.6551 17.0007 21.2951L18.4207 19.8831C19.3807 18.9301 19.1107 17.2951 17.8827 16.6281L15.9728 15.5891C15.1668 15.1521 14.1868 15.2801 13.5568 15.9061Z" fill="#FB0F40"/>
<path d="M34.72 20.16C33.8667 20.16 33.072 20.0213 32.336 19.744C31.6107 19.456 30.976 19.056 30.432 18.544C29.8987 18.0213 29.4827 17.408 29.184 16.704C28.8853 16 28.736 15.232 28.736 14.4C28.736 13.568 28.8853 12.8 29.184 12.096C29.4827 11.392 29.904 10.784 30.448 10.272C30.992 9.74933 31.6267 9.34933 32.352 9.072C33.0773 8.784 33.872 8.64 34.736 8.64C35.6533 8.64 36.4907 8.8 37.248 9.12C38.0053 9.42933 38.6453 9.89333 39.168 10.512L37.824 11.776C37.4187 11.3387 36.9653 11.0133 36.464 10.8C35.9627 10.576 35.4187 10.464 34.832 10.464C34.2453 10.464 33.7067 10.56 33.216 10.752C32.736 10.944 32.3147 11.216 31.952 11.568C31.6 11.92 31.3227 12.336 31.12 12.816C30.928 13.296 30.832 13.824 30.832 14.4C30.832 14.976 30.928 15.504 31.12 15.984C31.3227 16.464 31.6 16.88 31.952 17.232C32.3147 17.584 32.736 17.856 33.216 18.048C33.7067 18.24 34.2453 18.336 34.832 18.336C35.4187 18.336 35.9627 18.2293 36.464 18.016C36.9653 17.792 37.4187 17.456 37.824 17.008L39.168 18.288C38.6453 18.896 38.0053 19.36 37.248 19.68C36.4907 20 35.648 20.16 34.72 20.16ZM40.8753 20V11.456H49.0673V20H47.0833V12.688L47.5473 13.152H42.4113L42.8753 12.688V20H40.8753ZM56.5019 20.112C55.8085 20.112 55.1739 19.952 54.5979 19.632C54.0325 19.312 53.5792 18.832 53.2379 18.192C52.9072 17.5413 52.7419 16.72 52.7419 15.728C52.7419 14.7253 52.9019 13.904 53.2219 13.264C53.5525 12.624 54.0005 12.1493 54.5659 11.84C55.1312 11.52 55.7765 11.36 56.5019 11.36C57.3445 11.36 58.0859 11.5413 58.7259 11.904C59.3765 12.2667 59.8885 12.7733 60.2619 13.424C60.6459 14.0747 60.8379 14.8427 60.8379 15.728C60.8379 16.6133 60.6459 17.3867 60.2619 18.048C59.8885 18.6987 59.3765 19.2053 58.7259 19.568C58.0859 19.9307 57.3445 20.112 56.5019 20.112ZM51.7659 23.104V11.456H53.6699V13.472L53.6059 15.744L53.7659 18.016V23.104H51.7659ZM56.2779 18.4C56.7579 18.4 57.1845 18.2933 57.5579 18.08C57.9419 17.8667 58.2459 17.5573 58.4699 17.152C58.6939 16.7467 58.8059 16.272 58.8059 15.728C58.8059 15.1733 58.6939 14.6987 58.4699 14.304C58.2459 13.8987 57.9419 13.5893 57.5579 13.376C57.1845 13.1627 56.7579 13.056 56.2779 13.056C55.7979 13.056 55.3659 13.1627 54.9819 13.376C54.5979 13.5893 54.2939 13.8987 54.0699 14.304C53.8459 14.6987 53.7339 15.1733 53.7339 15.728C53.7339 16.272 53.8459 16.7467 54.0699 17.152C54.2939 17.5573 54.5979 17.8667 54.9819 18.08C55.3659 18.2933 55.7979 18.4 56.2779 18.4ZM67.903 20V18.272L67.791 17.904V14.88C67.791 14.2933 67.615 13.84 67.263 13.52C66.911 13.1893 66.3777 13.024 65.663 13.024C65.183 13.024 64.7083 13.0987 64.239 13.248C63.7803 13.3973 63.391 13.6053 63.071 13.872L62.287 12.416C62.7457 12.064 63.2897 11.8027 63.919 11.632C64.559 11.4507 65.2203 11.36 65.903 11.36C67.1403 11.36 68.095 11.6587 68.767 12.256C69.4497 12.8427 69.791 13.7547 69.791 14.992V20H67.903ZM65.215 20.112C64.575 20.112 64.015 20.0053 63.535 19.792C63.055 19.568 62.6817 19.264 62.415 18.88C62.159 18.4853 62.031 18.0427 62.031 17.552C62.031 17.072 62.143 16.64 62.367 16.256C62.6017 15.872 62.9803 15.568 63.503 15.344C64.0257 15.12 64.719 15.008 65.583 15.008H68.063V16.336H65.727C65.0443 16.336 64.5857 16.448 64.351 16.672C64.1163 16.8853 63.999 17.152 63.999 17.472C63.999 17.8347 64.143 18.1227 64.431 18.336C64.719 18.5493 65.119 18.656 65.631 18.656C66.1217 18.656 66.559 18.544 66.943 18.32C67.3377 18.096 67.6203 17.7653 67.791 17.328L68.127 18.528C67.935 19.0293 67.5883 19.4187 67.087 19.696C66.5963 19.9733 65.9723 20.112 65.215 20.112ZM72.2659 20V11.456H76.4419C77.4765 11.456 78.2872 11.648 78.8739 12.032C79.4712 12.416 79.7699 12.96 79.7699 13.664C79.7699 14.3573 79.4925 14.9013 78.9379 15.296C78.3832 15.68 77.6472 15.872 76.7299 15.872L76.9699 15.376C78.0045 15.376 78.7725 15.568 79.2739 15.952C79.7859 16.3253 80.0419 16.8747 80.0419 17.6C80.0419 18.3573 79.7592 18.9493 79.1939 19.376C78.6285 19.792 77.7699 20 76.6179 20H72.2659ZM74.1699 18.544H76.4579C77.0019 18.544 77.4125 18.4587 77.6899 18.288C77.9672 18.1067 78.1059 17.8347 78.1059 17.472C78.1059 17.088 77.9779 16.8053 77.7219 16.624C77.4659 16.4427 77.0659 16.352 76.5219 16.352H74.1699V18.544ZM74.1699 15.024H76.2659C76.7779 15.024 77.1619 14.9333 77.4179 14.752C77.6845 14.56 77.8179 14.2933 77.8179 13.952C77.8179 13.6 77.6845 13.3387 77.4179 13.168C77.1619 12.9973 76.7779 12.912 76.2659 12.912H74.1699V15.024ZM85.9801 20.112C85.1055 20.112 84.3268 19.9253 83.6441 19.552C82.9615 19.168 82.4228 18.6453 82.0281 17.984C81.6335 17.3227 81.4361 16.5707 81.4361 15.728C81.4361 14.8747 81.6335 14.1227 82.0281 13.472C82.4228 12.8107 82.9615 12.2933 83.6441 11.92C84.3268 11.5467 85.1055 11.36 85.9801 11.36C86.8655 11.36 87.6495 11.5467 88.3321 11.92C89.0255 12.2933 89.5641 12.8053 89.9481 13.456C90.3428 14.1067 90.5401 14.864 90.5401 15.728C90.5401 16.5707 90.3428 17.3227 89.9481 17.984C89.5641 18.6453 89.0255 19.168 88.3321 19.552C87.6495 19.9253 86.8655 20.112 85.9801 20.112ZM85.9801 18.4C86.4708 18.4 86.9081 18.2933 87.2921 18.08C87.6761 17.8667 87.9748 17.5573 88.1881 17.152C88.4121 16.7467 88.5241 16.272 88.5241 15.728C88.5241 15.1733 88.4121 14.6987 88.1881 14.304C87.9748 13.8987 87.6761 13.5893 87.2921 13.376C86.9081 13.1627 86.4761 13.056 85.9961 13.056C85.5055 13.056 85.0681 13.1627 84.6841 13.376C84.3108 13.5893 84.0121 13.8987 83.7881 14.304C83.5641 14.6987 83.4521 15.1733 83.4521 15.728C83.4521 16.272 83.5641 16.7467 83.7881 17.152C84.0121 17.5573 84.3108 17.8667 84.6841 18.08C85.0681 18.2933 85.5001 18.4 85.9801 18.4ZM97.9079 16.624C97.5025 16.816 97.0705 16.976 96.6119 17.104C96.1639 17.2213 95.6892 17.28 95.1879 17.28C94.1105 17.28 93.2732 17.0293 92.6759 16.528C92.0785 16.0267 91.7799 15.248 91.7799 14.192V11.456H93.7799V14.064C93.7799 14.6293 93.9399 15.04 94.2599 15.296C94.5905 15.552 95.0439 15.68 95.6199 15.68C96.0039 15.68 96.3879 15.632 96.7719 15.536C97.1559 15.44 97.5345 15.3067 97.9079 15.136V16.624ZM97.7639 20V11.456H99.7639V20H97.7639ZM102.453 20V11.456H104.453V14.928H108.757V11.456H110.757V20H108.757V16.624H104.453V20H102.453ZM122.062 20V11.456H124.062V20H122.062ZM117.598 14.272C118.696 14.272 119.528 14.5173 120.094 15.008C120.67 15.4987 120.958 16.192 120.958 17.088C120.958 18.016 120.638 18.7413 119.998 19.264C119.368 19.776 118.472 20.0267 117.31 20.016L113.438 20V11.456H115.438V14.256L117.598 14.272ZM117.134 18.544C117.72 18.5547 118.168 18.432 118.478 18.176C118.787 17.92 118.942 17.5467 118.942 17.056C118.942 16.5653 118.787 16.2133 118.478 16C118.179 15.776 117.731 15.6587 117.134 15.648L115.438 15.632V18.528L117.134 18.544ZM126.75 20V11.456H128.75V17.088L133.47 11.456H135.294V20H133.294V14.368L128.59 20H126.75ZM130.894 10.448C130.041 10.448 129.385 10.2507 128.926 9.856C128.468 9.45067 128.233 8.864 128.222 8.096H129.55C129.561 8.48 129.678 8.784 129.902 9.008C130.137 9.232 130.462 9.344 130.878 9.344C131.284 9.344 131.604 9.232 131.838 9.008C132.084 8.784 132.212 8.48 132.222 8.096H133.582C133.572 8.864 133.332 9.45067 132.862 9.856C132.404 10.2507 131.748 10.448 130.894 10.448ZM142.407 20V11.456H144.407V18.304H148.487V11.456H150.487V20H142.407ZM149.911 21.904V19.952L150.375 20H148.487V18.304H151.783V21.904H149.911ZM157.547 20.112C156.597 20.112 155.765 19.9253 155.051 19.552C154.347 19.168 153.797 18.6453 153.403 17.984C153.019 17.3227 152.827 16.5707 152.827 15.728C152.827 14.8747 153.013 14.1227 153.387 13.472C153.771 12.8107 154.293 12.2933 154.955 11.92C155.627 11.5467 156.389 11.36 157.243 11.36C158.075 11.36 158.816 11.5413 159.467 11.904C160.117 12.2667 160.629 12.7787 161.003 13.44C161.376 14.1013 161.563 14.88 161.563 15.776C161.563 15.8613 161.557 15.9573 161.547 16.064C161.547 16.1707 161.541 16.272 161.531 16.368H154.411V15.04H160.475L159.691 15.456C159.701 14.9653 159.6 14.5333 159.387 14.16C159.173 13.7867 158.88 13.4933 158.507 13.28C158.144 13.0667 157.723 12.96 157.243 12.96C156.752 12.96 156.32 13.0667 155.947 13.28C155.584 13.4933 155.296 13.792 155.083 14.176C154.88 14.5493 154.779 14.992 154.779 15.504V15.824C154.779 16.336 154.896 16.7893 155.131 17.184C155.365 17.5787 155.696 17.8827 156.123 18.096C156.549 18.3093 157.04 18.416 157.595 18.416C158.075 18.416 158.507 18.3413 158.891 18.192C159.275 18.0427 159.616 17.808 159.915 17.488L160.987 18.72C160.603 19.168 160.117 19.5147 159.531 19.76C158.955 19.9947 158.293 20.112 157.547 20.112ZM163.75 20V11.456H165.75V14.928H170.054V11.456H172.054V20H170.054V16.624H165.75V20H163.75ZM176.511 20V12.672L176.975 13.152H173.503V11.456H181.503V13.152H178.047L178.511 12.672V20H176.511ZM187.689 20.112C186.996 20.112 186.361 19.952 185.785 19.632C185.22 19.312 184.767 18.832 184.425 18.192C184.095 17.5413 183.929 16.72 183.929 15.728C183.929 14.7253 184.089 13.904 184.409 13.264C184.74 12.624 185.188 12.1493 185.753 11.84C186.319 11.52 186.964 11.36 187.689 11.36C188.532 11.36 189.273 11.5413 189.913 11.904C190.564 12.2667 191.076 12.7733 191.449 13.424C191.833 14.0747 192.025 14.8427 192.025 15.728C192.025 16.6133 191.833 17.3867 191.449 18.048C191.076 18.6987 190.564 19.2053 189.913 19.568C189.273 19.9307 188.532 20.112 187.689 20.112ZM182.953 23.104V11.456H184.857V13.472L184.793 15.744L184.953 18.016V23.104H182.953ZM187.465 18.4C187.945 18.4 188.372 18.2933 188.745 18.08C189.129 17.8667 189.433 17.5573 189.657 17.152C189.881 16.7467 189.993 16.272 189.993 15.728C189.993 15.1733 189.881 14.6987 189.657 14.304C189.433 13.8987 189.129 13.5893 188.745 13.376C188.372 13.1627 187.945 13.056 187.465 13.056C186.985 13.056 186.553 13.1627 186.169 13.376C185.785 13.5893 185.481 13.8987 185.257 14.304C185.033 14.6987 184.921 15.1733 184.921 15.728C184.921 16.272 185.033 16.7467 185.257 17.152C185.481 17.5573 185.785 17.8667 186.169 18.08C186.553 18.2933 186.985 18.4 187.465 18.4ZM194.624 14.016C194.261 14.016 193.952 13.8933 193.696 13.648C193.44 13.392 193.312 13.072 193.312 12.688C193.312 12.2827 193.44 11.9627 193.696 11.728C193.952 11.4827 194.261 11.36 194.624 11.36C194.987 11.36 195.296 11.4827 195.552 11.728C195.808 11.9627 195.936 12.2827 195.936 12.688C195.936 13.072 195.808 13.392 195.552 13.648C195.296 13.8933 194.987 14.016 194.624 14.016ZM194.624 20.112C194.261 20.112 193.952 19.9893 193.696 19.744C193.44 19.488 193.312 19.168 193.312 18.784C193.312 18.3787 193.44 18.0587 193.696 17.824C193.952 17.5787 194.261 17.456 194.624 17.456C194.987 17.456 195.296 17.5787 195.552 17.824C195.808 18.0587 195.936 18.3787 195.936 18.784C195.936 19.168 195.808 19.488 195.552 19.744C195.296 19.9893 194.987 20.112 194.624 20.112Z" fill="#2A1F20"/>
</svg>
