<svg width="163" height="61" viewBox="0 0 163 61" fill="none" xmlns="http://www.w3.org/2000/svg">
<path d="M1.616 53V44.6H9.168V53H8.032V45.288L8.32 45.592H2.464L2.752 45.288V53H1.616ZM12.3973 53V44.6H13.5333V48.312H18.8293V44.6H19.9653V53H18.8293V49.288H13.5333V53H12.3973ZM22.5381 49.16V48.168H26.7301V49.16H22.5381ZM29.3035 53V44.6H33.0155C33.9648 44.6 34.7115 44.7813 35.2555 45.144C35.8102 45.5067 36.0875 46.04 36.0875 46.744C36.0875 47.4267 35.8262 47.9547 35.3035 48.328C34.7808 48.6907 34.0928 48.872 33.2395 48.872L33.4635 48.536C34.4662 48.536 35.2022 48.7227 35.6715 49.096C36.1408 49.4693 36.3755 50.008 36.3755 50.712C36.3755 51.4373 36.1088 52.0027 35.5755 52.408C35.0528 52.8027 34.2368 53 33.1275 53H29.3035ZM30.4075 52.104H33.0795C33.7942 52.104 34.3328 51.992 34.6955 51.768C35.0688 51.5333 35.2555 51.16 35.2555 50.648C35.2555 50.136 35.0902 49.7627 34.7595 49.528C34.4288 49.2933 33.9062 49.176 33.1915 49.176H30.4075V52.104ZM30.4075 48.328H32.9355C33.5862 48.328 34.0822 48.2053 34.4235 47.96C34.7755 47.7147 34.9515 47.3573 34.9515 46.888C34.9515 46.4187 34.7755 46.0667 34.4235 45.832C34.0822 45.5973 33.5862 45.48 32.9355 45.48H30.4075V48.328ZM42.5579 53.08C41.7259 53.08 40.9792 52.8987 40.3179 52.536C39.6672 52.1627 39.1552 51.656 38.7819 51.016C38.4085 50.3653 38.2219 49.624 38.2219 48.792C38.2219 47.9493 38.4085 47.208 38.7819 46.568C39.1552 45.928 39.6672 45.4267 40.3179 45.064C40.9792 44.7013 41.7259 44.52 42.5579 44.52C43.2725 44.52 43.9179 44.6587 44.4939 44.936C45.0699 45.2133 45.5232 45.6293 45.8539 46.184L45.0059 46.76C44.7179 46.3333 44.3605 46.0187 43.9339 45.816C43.5072 45.6133 43.0432 45.512 42.5419 45.512C41.9445 45.512 41.4059 45.6507 40.9259 45.928C40.4459 46.1947 40.0672 46.5733 39.7899 47.064C39.5125 47.5547 39.3739 48.1307 39.3739 48.792C39.3739 49.4533 39.5125 50.0293 39.7899 50.52C40.0672 51.0107 40.4459 51.3947 40.9259 51.672C41.4059 51.9387 41.9445 52.072 42.5419 52.072C43.0432 52.072 43.5072 51.9707 43.9339 51.768C44.3605 51.5653 44.7179 51.256 45.0059 50.84L45.8539 51.416C45.5232 51.96 45.0699 52.376 44.4939 52.664C43.9179 52.9413 43.2725 53.08 42.5579 53.08ZM48.2273 46.264C47.9926 46.264 47.7899 46.1787 47.6193 46.008C47.4593 45.8373 47.3793 45.6293 47.3793 45.384C47.3793 45.128 47.4593 44.92 47.6193 44.76C47.7899 44.6 47.9926 44.52 48.2273 44.52C48.4619 44.52 48.6593 44.6 48.8193 44.76C48.9899 44.92 49.0753 45.128 49.0753 45.384C49.0753 45.6293 48.9899 45.8373 48.8193 46.008C48.6593 46.1787 48.4619 46.264 48.2273 46.264ZM48.2273 53.08C47.9926 53.08 47.7899 52.9947 47.6193 52.824C47.4593 52.6533 47.3793 52.4453 47.3793 52.2C47.3793 51.944 47.4593 51.736 47.6193 51.576C47.7899 51.416 47.9926 51.336 48.2273 51.336C48.4619 51.336 48.6593 51.416 48.8193 51.576C48.9899 51.736 49.0753 51.944 49.0753 52.2C49.0753 52.4453 48.9899 52.6533 48.8193 52.824C48.6593 52.9947 48.4619 53.08 48.2273 53.08ZM56.8934 53V42.28L57.4054 42.824H54.2534V41.8H58.0454V53H56.8934ZM65.1866 53.096C64.3226 53.096 63.5546 52.872 62.8826 52.424C62.2106 51.9653 61.6826 51.3147 61.2986 50.472C60.9146 49.6187 60.7226 48.5947 60.7226 47.4C60.7226 46.2053 60.9146 45.1867 61.2986 44.344C61.6826 43.4907 62.2106 42.84 62.8826 42.392C63.5546 41.9333 64.3226 41.704 65.1866 41.704C66.0506 41.704 66.8186 41.9333 67.4906 42.392C68.1626 42.84 68.6906 43.4907 69.0746 44.344C69.4693 45.1867 69.6666 46.2053 69.6666 47.4C69.6666 48.5947 69.4693 49.6187 69.0746 50.472C68.6906 51.3147 68.1626 51.9653 67.4906 52.424C66.8186 52.872 66.0506 53.096 65.1866 53.096ZM65.1866 52.04C65.848 52.04 66.424 51.864 66.9146 51.512C67.4053 51.1493 67.7893 50.6267 68.0666 49.944C68.344 49.2507 68.4826 48.4027 68.4826 47.4C68.4826 46.3973 68.344 45.5547 68.0666 44.872C67.7893 44.1787 67.4053 43.656 66.9146 43.304C66.424 42.9413 65.848 42.76 65.1866 42.76C64.5466 42.76 63.976 42.9413 63.4746 43.304C62.9733 43.656 62.584 44.1787 62.3066 44.872C62.0293 45.5547 61.8906 46.3973 61.8906 47.4C61.8906 48.4027 62.0293 49.2507 62.3066 49.944C62.584 50.6267 62.9733 51.1493 63.4746 51.512C63.976 51.864 64.5466 52.04 65.1866 52.04ZM72.1804 46.264C71.9457 46.264 71.743 46.1787 71.5724 46.008C71.4124 45.8373 71.3324 45.6293 71.3324 45.384C71.3324 45.128 71.4124 44.92 71.5724 44.76C71.743 44.6 71.9457 44.52 72.1804 44.52C72.415 44.52 72.6124 44.6 72.7724 44.76C72.943 44.92 73.0284 45.128 73.0284 45.384C73.0284 45.6293 72.943 45.8373 72.7724 46.008C72.6124 46.1787 72.415 46.264 72.1804 46.264ZM72.1804 53.08C71.9457 53.08 71.743 52.9947 71.5724 52.824C71.4124 52.6533 71.3324 52.4453 71.3324 52.2C71.3324 51.944 71.4124 51.736 71.5724 51.576C71.743 51.416 71.9457 51.336 72.1804 51.336C72.415 51.336 72.6124 51.416 72.7724 51.576C72.943 51.736 73.0284 51.944 73.0284 52.2C73.0284 52.4453 72.943 52.6533 72.7724 52.824C72.6124 52.9947 72.415 53.08 72.1804 53.08ZM79.171 53.096C78.307 53.096 77.539 52.872 76.867 52.424C76.195 51.9653 75.667 51.3147 75.283 50.472C74.899 49.6187 74.707 48.5947 74.707 47.4C74.707 46.2053 74.899 45.1867 75.283 44.344C75.667 43.4907 76.195 42.84 76.867 42.392C77.539 41.9333 78.307 41.704 79.171 41.704C80.035 41.704 80.803 41.9333 81.475 42.392C82.147 42.84 82.675 43.4907 83.059 44.344C83.4537 45.1867 83.651 46.2053 83.651 47.4C83.651 48.5947 83.4537 49.6187 83.059 50.472C82.675 51.3147 82.147 51.9653 81.475 52.424C80.803 52.872 80.035 53.096 79.171 53.096ZM79.171 52.04C79.8323 52.04 80.4083 51.864 80.899 51.512C81.3897 51.1493 81.7737 50.6267 82.051 49.944C82.3283 49.2507 82.467 48.4027 82.467 47.4C82.467 46.3973 82.3283 45.5547 82.051 44.872C81.7737 44.1787 81.3897 43.656 80.899 43.304C80.4083 42.9413 79.8323 42.76 79.171 42.76C78.531 42.76 77.9603 42.9413 77.459 43.304C76.9577 43.656 76.5683 44.1787 76.291 44.872C76.0137 45.5547 75.875 46.3973 75.875 47.4C75.875 48.4027 76.0137 49.2507 76.291 49.944C76.5683 50.6267 76.9577 51.1493 77.459 51.512C77.9603 51.864 78.531 52.04 79.171 52.04ZM89.7648 53.096C88.9008 53.096 88.1328 52.872 87.4608 52.424C86.7888 51.9653 86.2608 51.3147 85.8768 50.472C85.4928 49.6187 85.3008 48.5947 85.3008 47.4C85.3008 46.2053 85.4928 45.1867 85.8768 44.344C86.2608 43.4907 86.7888 42.84 87.4608 42.392C88.1328 41.9333 88.9008 41.704 89.7648 41.704C90.6288 41.704 91.3968 41.9333 92.0688 42.392C92.7408 42.84 93.2688 43.4907 93.6528 44.344C94.0474 45.1867 94.2448 46.2053 94.2448 47.4C94.2448 48.5947 94.0474 49.6187 93.6528 50.472C93.2688 51.3147 92.7408 51.9653 92.0688 52.424C91.3968 52.872 90.6288 53.096 89.7648 53.096ZM89.7648 52.04C90.4261 52.04 91.0021 51.864 91.4928 51.512C91.9834 51.1493 92.3674 50.6267 92.6448 49.944C92.9221 49.2507 93.0608 48.4027 93.0608 47.4C93.0608 46.3973 92.9221 45.5547 92.6448 44.872C92.3674 44.1787 91.9834 43.656 91.4928 43.304C91.0021 42.9413 90.4261 42.76 89.7648 42.76C89.1248 42.76 88.5541 42.9413 88.0528 43.304C87.5514 43.656 87.1621 44.1787 86.8848 44.872C86.6074 45.5547 86.4688 46.3973 86.4688 47.4C86.4688 48.4027 86.6074 49.2507 86.8848 49.944C87.1621 50.6267 87.5514 51.1493 88.0528 51.512C88.5541 51.864 89.1248 52.04 89.7648 52.04ZM96.1475 49.16V48.168H100.34V49.16H96.1475ZM101.733 53V52.184L106.389 47.624C106.816 47.208 107.136 46.8453 107.349 46.536C107.563 46.216 107.707 45.9173 107.781 45.64C107.856 45.3627 107.893 45.1013 107.893 44.856C107.893 44.2053 107.669 43.6933 107.221 43.32C106.784 42.9467 106.133 42.76 105.269 42.76C104.608 42.76 104.021 42.8613 103.509 43.064C103.008 43.2667 102.576 43.5813 102.213 44.008L101.397 43.304C101.835 42.792 102.395 42.3973 103.077 42.12C103.76 41.8427 104.523 41.704 105.365 41.704C106.123 41.704 106.779 41.8267 107.333 42.072C107.888 42.3067 108.315 42.6533 108.613 43.112C108.923 43.5707 109.077 44.1093 109.077 44.728C109.077 45.0907 109.024 45.448 108.917 45.8C108.821 46.152 108.64 46.5253 108.373 46.92C108.117 47.304 107.739 47.7413 107.237 48.232L102.965 52.424L102.645 51.976H109.589V53H101.733ZM112.987 53V42.28L113.499 42.824H110.347V41.8H114.139V53H112.987ZM117.68 46.264C117.446 46.264 117.243 46.1787 117.072 46.008C116.912 45.8373 116.832 45.6293 116.832 45.384C116.832 45.128 116.912 44.92 117.072 44.76C117.243 44.6 117.446 44.52 117.68 44.52C117.915 44.52 118.112 44.6 118.272 44.76C118.443 44.92 118.528 45.128 118.528 45.384C118.528 45.6293 118.443 45.8373 118.272 46.008C118.112 46.1787 117.915 46.264 117.68 46.264ZM117.68 53.08C117.446 53.08 117.243 52.9947 117.072 52.824C116.912 52.6533 116.832 52.4453 116.832 52.2C116.832 51.944 116.912 51.736 117.072 51.576C117.243 51.416 117.446 51.336 117.68 51.336C117.915 51.336 118.112 51.416 118.272 51.576C118.443 51.736 118.528 51.944 118.528 52.2C118.528 52.4453 118.443 52.6533 118.272 52.824C118.112 52.9947 117.915 53.08 117.68 53.08ZM124.671 53.096C123.807 53.096 123.039 52.872 122.367 52.424C121.695 51.9653 121.167 51.3147 120.783 50.472C120.399 49.6187 120.207 48.5947 120.207 47.4C120.207 46.2053 120.399 45.1867 120.783 44.344C121.167 43.4907 121.695 42.84 122.367 42.392C123.039 41.9333 123.807 41.704 124.671 41.704C125.535 41.704 126.303 41.9333 126.975 42.392C127.647 42.84 128.175 43.4907 128.559 44.344C128.954 45.1867 129.151 46.2053 129.151 47.4C129.151 48.5947 128.954 49.6187 128.559 50.472C128.175 51.3147 127.647 51.9653 126.975 52.424C126.303 52.872 125.535 53.096 124.671 53.096ZM124.671 52.04C125.332 52.04 125.908 51.864 126.399 51.512C126.89 51.1493 127.274 50.6267 127.551 49.944C127.828 49.2507 127.967 48.4027 127.967 47.4C127.967 46.3973 127.828 45.5547 127.551 44.872C127.274 44.1787 126.89 43.656 126.399 43.304C125.908 42.9413 125.332 42.76 124.671 42.76C124.031 42.76 123.46 42.9413 122.959 43.304C122.458 43.656 122.068 44.1787 121.791 44.872C121.514 45.5547 121.375 46.3973 121.375 47.4C121.375 48.4027 121.514 49.2507 121.791 49.944C122.068 50.6267 122.458 51.1493 122.959 51.512C123.46 51.864 124.031 52.04 124.671 52.04ZM135.265 53.096C134.401 53.096 133.633 52.872 132.961 52.424C132.289 51.9653 131.761 51.3147 131.377 50.472C130.993 49.6187 130.801 48.5947 130.801 47.4C130.801 46.2053 130.993 45.1867 131.377 44.344C131.761 43.4907 132.289 42.84 132.961 42.392C133.633 41.9333 134.401 41.704 135.265 41.704C136.129 41.704 136.897 41.9333 137.569 42.392C138.241 42.84 138.769 43.4907 139.153 44.344C139.547 45.1867 139.745 46.2053 139.745 47.4C139.745 48.5947 139.547 49.6187 139.153 50.472C138.769 51.3147 138.241 51.9653 137.569 52.424C136.897 52.872 136.129 53.096 135.265 53.096ZM135.265 52.04C135.926 52.04 136.502 51.864 136.993 51.512C137.483 51.1493 137.867 50.6267 138.145 49.944C138.422 49.2507 138.561 48.4027 138.561 47.4C138.561 46.3973 138.422 45.5547 138.145 44.872C137.867 44.1787 137.483 43.656 136.993 43.304C136.502 42.9413 135.926 42.76 135.265 42.76C134.625 42.76 134.054 42.9413 133.553 43.304C133.051 43.656 132.662 44.1787 132.385 44.872C132.107 45.5547 131.969 46.3973 131.969 47.4C131.969 48.4027 132.107 49.2507 132.385 49.944C132.662 50.6267 133.051 51.1493 133.553 51.512C134.054 51.864 134.625 52.04 135.265 52.04Z" fill="#2A1F20"/>
<path d="M29.584 20V8.8H37.184L37.168 10.56H31.136L31.616 10.064L31.632 20H29.584ZM42.1894 20.112C41.496 20.112 40.8614 19.952 40.2854 19.632C39.72 19.312 39.2667 18.832 38.9254 18.192C38.5947 17.5413 38.4294 16.72 38.4294 15.728C38.4294 14.7253 38.5894 13.904 38.9094 13.264C39.24 12.624 39.688 12.1493 40.2534 11.84C40.8187 11.52 41.464 11.36 42.1894 11.36C43.032 11.36 43.7734 11.5413 44.4134 11.904C45.064 12.2667 45.576 12.7733 45.9494 13.424C46.3334 14.0747 46.5254 14.8427 46.5254 15.728C46.5254 16.6133 46.3334 17.3867 45.9494 18.048C45.576 18.6987 45.064 19.2053 44.4134 19.568C43.7734 19.9307 43.032 20.112 42.1894 20.112ZM37.4534 23.104V11.456H39.3574V13.472L39.2934 15.744L39.4534 18.016V23.104H37.4534ZM41.9654 18.4C42.4454 18.4 42.872 18.2933 43.2454 18.08C43.6294 17.8667 43.9334 17.5573 44.1574 17.152C44.3814 16.7467 44.4934 16.272 44.4934 15.728C44.4934 15.1733 44.3814 14.6987 44.1574 14.304C43.9334 13.8987 43.6294 13.5893 43.2454 13.376C42.872 13.1627 42.4454 13.056 41.9654 13.056C41.4854 13.056 41.0534 13.1627 40.6694 13.376C40.2854 13.5893 39.9814 13.8987 39.7574 14.304C39.5334 14.6987 39.4214 15.1733 39.4214 15.728C39.4214 16.272 39.5334 16.7467 39.7574 17.152C39.9814 17.5573 40.2854 17.8667 40.6694 18.08C41.0534 18.2933 41.4854 18.4 41.9654 18.4ZM53.5905 20V18.272L53.4785 17.904V14.88C53.4785 14.2933 53.3025 13.84 52.9505 13.52C52.5985 13.1893 52.0652 13.024 51.3505 13.024C50.8705 13.024 50.3958 13.0987 49.9265 13.248C49.4678 13.3973 49.0785 13.6053 48.7585 13.872L47.9745 12.416C48.4332 12.064 48.9772 11.8027 49.6065 11.632C50.2465 11.4507 50.9078 11.36 51.5905 11.36C52.8278 11.36 53.7825 11.6587 54.4545 12.256C55.1372 12.8427 55.4785 13.7547 55.4785 14.992V20H53.5905ZM50.9025 20.112C50.2625 20.112 49.7025 20.0053 49.2225 19.792C48.7425 19.568 48.3692 19.264 48.1025 18.88C47.8465 18.4853 47.7185 18.0427 47.7185 17.552C47.7185 17.072 47.8305 16.64 48.0545 16.256C48.2892 15.872 48.6678 15.568 49.1905 15.344C49.7132 15.12 50.4065 15.008 51.2705 15.008H53.7505V16.336H51.4145C50.7318 16.336 50.2732 16.448 50.0385 16.672C49.8038 16.8853 49.6865 17.152 49.6865 17.472C49.6865 17.8347 49.8305 18.1227 50.1185 18.336C50.4065 18.5493 50.8065 18.656 51.3185 18.656C51.8092 18.656 52.2465 18.544 52.6305 18.32C53.0252 18.096 53.3078 17.7653 53.4785 17.328L53.8145 18.528C53.6225 19.0293 53.2758 19.4187 52.7745 19.696C52.2838 19.9733 51.6598 20.112 50.9025 20.112ZM63.3774 20.16C63.3667 20.16 63.3187 20.16 63.2334 20.16C63.1587 20.16 63.084 20.16 63.0094 20.16C62.9454 20.16 62.9027 20.16 62.8814 20.16C61.0787 20.1387 59.6814 19.7493 58.6894 18.992C57.6974 18.224 57.2014 17.1307 57.2014 15.712C57.2014 14.304 57.6974 13.2267 58.6894 12.48C59.6814 11.7333 61.0947 11.3493 62.9294 11.328C62.9507 11.328 62.9934 11.328 63.0574 11.328C63.132 11.328 63.2014 11.328 63.2654 11.328C63.34 11.328 63.3827 11.328 63.3934 11.328C65.2387 11.328 66.6734 11.7067 67.6974 12.464C68.732 13.2107 69.2494 14.2933 69.2494 15.712C69.2494 17.1413 68.732 18.24 67.6974 19.008C66.6734 19.776 65.2334 20.16 63.3774 20.16ZM63.3134 18.496C64.22 18.496 64.9667 18.3947 65.5534 18.192C66.14 17.9787 66.5774 17.6693 66.8654 17.264C67.1534 16.848 67.2974 16.3307 67.2974 15.712C67.2974 15.104 67.1534 14.6027 66.8654 14.208C66.5774 13.8027 66.14 13.504 65.5534 13.312C64.9667 13.1093 64.22 13.008 63.3134 13.008C63.292 13.008 63.2387 13.008 63.1534 13.008C63.0787 13.008 63.0307 13.008 63.0094 13.008C62.124 13.008 61.3987 13.1147 60.8334 13.328C60.268 13.5307 59.8467 13.8293 59.5694 14.224C59.3027 14.6187 59.1694 15.1147 59.1694 15.712C59.1694 16.32 59.3027 16.8267 59.5694 17.232C59.8467 17.6373 60.268 17.9467 60.8334 18.16C61.4094 18.3733 62.1347 18.4853 63.0094 18.496C63.0307 18.496 63.0787 18.496 63.1534 18.496C63.2387 18.496 63.292 18.496 63.3134 18.496ZM62.2734 23.104V8.128H64.1614V23.104H62.2734ZM71.1878 20V11.456H73.1878V17.088L77.9078 11.456H79.7318V20H77.7318V14.368L73.0278 20H71.1878ZM88.5501 20L85.4621 15.904L87.0941 14.896L90.9021 20H88.5501ZM82.4221 20V11.456H84.4221V20H82.4221ZM83.8301 16.576V14.912H86.7261V16.576H83.8301ZM87.2861 15.968L85.4141 15.744L88.5501 11.456H90.6941L87.2861 15.968ZM101.471 20.112C100.777 20.112 100.143 19.952 99.5666 19.632C99.0013 19.312 98.548 18.832 98.2066 18.192C97.876 17.5413 97.7106 16.72 97.7106 15.728C97.7106 14.7253 97.8706 13.904 98.1906 13.264C98.5213 12.624 98.9693 12.1493 99.5346 11.84C100.1 11.52 100.745 11.36 101.471 11.36C102.313 11.36 103.055 11.5413 103.695 11.904C104.345 12.2667 104.857 12.7733 105.231 13.424C105.615 14.0747 105.807 14.8427 105.807 15.728C105.807 16.6133 105.615 17.3867 105.231 18.048C104.857 18.6987 104.345 19.2053 103.695 19.568C103.055 19.9307 102.313 20.112 101.471 20.112ZM96.7346 23.104V11.456H98.6386V13.472L98.5746 15.744L98.7346 18.016V23.104H96.7346ZM101.247 18.4C101.727 18.4 102.153 18.2933 102.527 18.08C102.911 17.8667 103.215 17.5573 103.439 17.152C103.663 16.7467 103.775 16.272 103.775 15.728C103.775 15.1733 103.663 14.6987 103.439 14.304C103.215 13.8987 102.911 13.5893 102.527 13.376C102.153 13.1627 101.727 13.056 101.247 13.056C100.767 13.056 100.335 13.1627 99.9506 13.376C99.5666 13.5893 99.2626 13.8987 99.0386 14.304C98.8146 14.6987 98.7026 15.1733 98.7026 15.728C98.7026 16.272 98.8146 16.7467 99.0386 17.152C99.2626 17.5573 99.5666 17.8667 99.9506 18.08C100.335 18.2933 100.767 18.4 101.247 18.4ZM112.872 20V18.272L112.76 17.904V14.88C112.76 14.2933 112.584 13.84 112.232 13.52C111.88 13.1893 111.346 13.024 110.632 13.024C110.152 13.024 109.677 13.0987 109.208 13.248C108.749 13.3973 108.36 13.6053 108.04 13.872L107.256 12.416C107.714 12.064 108.258 11.8027 108.888 11.632C109.528 11.4507 110.189 11.36 110.872 11.36C112.109 11.36 113.064 11.6587 113.736 12.256C114.418 12.8427 114.76 13.7547 114.76 14.992V20H112.872ZM110.184 20.112C109.544 20.112 108.984 20.0053 108.504 19.792C108.024 19.568 107.65 19.264 107.384 18.88C107.128 18.4853 107 18.0427 107 17.552C107 17.072 107.112 16.64 107.336 16.256C107.57 15.872 107.949 15.568 108.472 15.344C108.994 15.12 109.688 15.008 110.552 15.008H113.032V16.336H110.696C110.013 16.336 109.554 16.448 109.32 16.672C109.085 16.8853 108.968 17.152 108.968 17.472C108.968 17.8347 109.112 18.1227 109.4 18.336C109.688 18.5493 110.088 18.656 110.6 18.656C111.09 18.656 111.528 18.544 111.912 18.32C112.306 18.096 112.589 17.7653 112.76 17.328L113.096 18.528C112.904 19.0293 112.557 19.4187 112.056 19.696C111.565 19.9733 110.941 20.112 110.184 20.112ZM121.315 20.16C120.611 20.16 119.981 20.0533 119.427 19.84C118.872 19.6267 118.392 19.3013 117.987 18.864C117.592 18.416 117.288 17.8507 117.075 17.168C116.861 16.4853 116.755 15.6747 116.755 14.736C116.755 14.0533 116.813 13.4293 116.931 12.864C117.048 12.2987 117.224 11.792 117.459 11.344C117.693 10.8853 117.987 10.48 118.339 10.128C118.701 9.776 119.123 9.48267 119.603 9.248C120.083 9.01333 120.627 8.832 121.235 8.704L125.203 7.856L125.491 9.648L121.891 10.384C121.688 10.4267 121.443 10.4907 121.155 10.576C120.877 10.6507 120.589 10.768 120.291 10.928C120.003 11.0773 119.731 11.296 119.475 11.584C119.229 11.8613 119.027 12.224 118.867 12.672C118.717 13.1093 118.643 13.6587 118.643 14.32C118.643 14.5227 118.648 14.6773 118.659 14.784C118.68 14.88 118.696 14.9867 118.707 15.104C118.728 15.2107 118.739 15.3707 118.739 15.584L117.987 14.8C118.2 14.256 118.493 13.792 118.867 13.408C119.251 13.0133 119.693 12.7147 120.195 12.512C120.707 12.2987 121.261 12.192 121.859 12.192C122.659 12.192 123.368 12.3573 123.987 12.688C124.605 13.0187 125.091 13.4827 125.443 14.08C125.795 14.6773 125.971 15.3547 125.971 16.112C125.971 16.9013 125.779 17.6 125.395 18.208C125.011 18.816 124.467 19.296 123.763 19.648C123.069 19.9893 122.253 20.16 121.315 20.16ZM121.475 18.544C121.955 18.544 122.376 18.4427 122.739 18.24C123.112 18.0267 123.4 17.7387 123.603 17.376C123.816 17.0133 123.923 16.608 123.923 16.16C123.923 15.712 123.816 15.3227 123.603 14.992C123.4 14.6507 123.112 14.3787 122.739 14.176C122.376 13.9733 121.944 13.872 121.443 13.872C120.963 13.872 120.531 13.968 120.147 14.16C119.773 14.352 119.48 14.6187 119.267 14.96C119.064 15.2907 118.963 15.6747 118.963 16.112C118.963 16.56 119.069 16.9707 119.283 17.344C119.496 17.7173 119.789 18.0107 120.163 18.224C120.547 18.4373 120.984 18.544 121.475 18.544ZM131.715 20.112C130.84 20.112 130.061 19.9253 129.379 19.552C128.696 19.168 128.157 18.6453 127.763 17.984C127.368 17.3227 127.171 16.5707 127.171 15.728C127.171 14.8747 127.368 14.1227 127.763 13.472C128.157 12.8107 128.696 12.2933 129.379 11.92C130.061 11.5467 130.84 11.36 131.715 11.36C132.6 11.36 133.384 11.5467 134.067 11.92C134.76 12.2933 135.299 12.8053 135.683 13.456C136.077 14.1067 136.275 14.864 136.275 15.728C136.275 16.5707 136.077 17.3227 135.683 17.984C135.299 18.6453 134.76 19.168 134.067 19.552C133.384 19.9253 132.6 20.112 131.715 20.112ZM131.715 18.4C132.205 18.4 132.643 18.2933 133.027 18.08C133.411 17.8667 133.709 17.5573 133.923 17.152C134.147 16.7467 134.259 16.272 134.259 15.728C134.259 15.1733 134.147 14.6987 133.923 14.304C133.709 13.8987 133.411 13.5893 133.027 13.376C132.643 13.1627 132.211 13.056 131.731 13.056C131.24 13.056 130.803 13.1627 130.419 13.376C130.045 13.5893 129.747 13.8987 129.523 14.304C129.299 14.6987 129.187 15.1733 129.187 15.728C129.187 16.272 129.299 16.7467 129.523 17.152C129.747 17.5573 130.045 17.8667 130.419 18.08C130.803 18.2933 131.235 18.4 131.715 18.4ZM139.714 20V12.672L140.178 13.152H136.706V11.456H144.706V13.152H141.25L141.714 12.672V20H139.714ZM154.781 20V11.456H156.781V20H154.781ZM150.317 14.272C151.415 14.272 152.247 14.5173 152.812 15.008C153.389 15.4987 153.677 16.192 153.677 17.088C153.677 18.016 153.357 18.7413 152.717 19.264C152.087 19.776 151.191 20.0267 150.029 20.016L146.157 20V11.456H148.157V14.256L150.317 14.272ZM149.853 18.544C150.439 18.5547 150.887 18.432 151.197 18.176C151.506 17.92 151.661 17.5467 151.661 17.056C151.661 16.5653 151.506 16.2133 151.197 16C150.898 15.776 150.45 15.6587 149.853 15.648L148.157 15.632V18.528L149.853 18.544ZM160.077 14.016C159.714 14.016 159.405 13.8933 159.149 13.648C158.893 13.392 158.765 13.072 158.765 12.688C158.765 12.2827 158.893 11.9627 159.149 11.728C159.405 11.4827 159.714 11.36 160.077 11.36C160.44 11.36 160.749 11.4827 161.005 11.728C161.261 11.9627 161.389 12.2827 161.389 12.688C161.389 13.072 161.261 13.392 161.005 13.648C160.749 13.8933 160.44 14.016 160.077 14.016ZM160.077 20.112C159.714 20.112 159.405 19.9893 159.149 19.744C158.893 19.488 158.765 19.168 158.765 18.784C158.765 18.3787 158.893 18.0587 159.149 17.824C159.405 17.5787 159.714 17.456 160.077 17.456C160.44 17.456 160.749 17.5787 161.005 17.824C161.261 18.0587 161.389 18.3787 161.389 18.784C161.389 19.168 161.261 19.488 161.005 19.744C160.749 19.9893 160.44 20.112 160.077 20.112Z" fill="#2A1F20"/>
<path d="M1 14C1 18.9706 5.02944 23 10 23C14.9706 23 19 18.9706 19 14C19 9.02944 14.9706 5 10 5C5.02944 5 1 9.02944 1 14Z" fill="#FB0F40"/>
<path d="M10 7.64703V14.2294C10 14.3951 10.1343 14.5294 10.3 14.5294H14.7647" stroke="white" stroke-width="1.5"/>
</svg>
